<svg viewBox="0 0 543 328" fill="none" xmlns="http://www.w3.org/2000/svg">
<g clip-path="url(#clip0)">
<path d="M536.356 305.205C534.26 310.364 531.683 315.315 528.658 319.991C527.238 322.221 525.681 324.361 523.996 326.398L523.944 326.459H2.62695L2.72077 326.394C3.18986 326.028 5.94338 323.8 10.2261 319.986C13.2986 317.247 17.1545 313.691 21.4842 309.413C56.8954 274.583 124.917 192.142 68.266 116.619C15.6018 46.4112 72.3048 33.6662 109.71 32.1839C124.082 31.6259 138.42 33.9695 151.866 39.0747C169.143 45.6419 200.726 55.7131 241.874 60.3242C243.225 60.4775 244.589 60.6245 245.965 60.7652C267.75 62.9816 289.682 63.3786 311.533 61.952C312.176 61.9191 312.823 61.8722 313.475 61.8253C335.092 60.3035 356.544 56.9834 377.609 51.8995C378.974 51.5664 380.32 51.2522 381.661 50.9613C451.851 34.7216 516.556 90.0689 500.382 152.621C494.397 175.752 495.916 200.416 515.862 220.362C548.487 252.935 544.513 285.002 536.356 305.205Z" fill="white"/>
<path d="M536.292 331.343C534.198 330.046 531.623 328.802 528.601 327.626C527.182 327.066 525.626 326.528 523.942 326.015L523.891 326H3L3.09374 326.017C3.56244 326.108 6.31372 326.669 10.593 327.627C13.6629 328.316 17.5157 329.21 21.8418 330.285C57.224 339.041 125.19 359.767 68.5853 378.753C15.9643 396.403 72.6208 399.607 109.995 399.98C124.356 400.12 138.681 399.531 152.117 398.247C169.379 396.596 200.937 394.065 242.051 392.905C243.401 392.867 244.764 392.83 246.139 392.795C267.906 392.237 289.82 392.138 311.654 392.496C312.296 392.504 312.942 392.516 313.594 392.528C335.193 392.911 356.627 393.745 377.675 395.023C379.039 395.107 380.384 395.186 381.724 395.259C451.856 399.342 516.509 385.428 500.348 369.702C494.367 363.887 495.886 357.687 515.815 352.673C548.413 344.484 544.443 336.422 536.292 331.343Z" fill="white"/>
<path d="M425.473 129.948C427.25 126.771 426.723 123.095 424.297 121.739C421.87 120.382 418.463 121.858 416.687 125.035C414.911 128.212 415.438 131.887 417.864 133.244C420.29 134.6 423.697 133.125 425.473 129.948Z" fill="#3F3D56"/>
<path d="M429.403 122.916C431.179 119.739 430.652 116.064 428.226 114.708C425.799 113.351 422.393 114.827 420.616 118.004C418.84 121.181 419.367 124.856 421.793 126.213C424.219 127.569 427.626 126.093 429.403 122.916Z" fill="#3F3D56"/>
<path d="M433.335 115.887C435.112 112.71 434.585 109.035 432.158 107.678C429.732 106.322 426.325 107.797 424.549 110.974C422.773 114.152 423.299 117.827 425.726 119.183C428.152 120.54 431.559 119.064 433.335 115.887Z" fill="#3F3D56"/>
<path d="M437.264 108.851C439.041 105.674 438.514 101.999 436.088 100.642C433.661 99.2858 430.254 100.762 428.478 103.939C426.702 107.116 427.229 110.791 429.655 112.147C432.081 113.504 435.488 112.028 437.264 108.851Z" fill="#3F3D56"/>
<path d="M441.191 101.824C442.968 98.6468 442.441 94.9716 440.014 93.615C437.588 92.2584 434.181 93.7342 432.405 96.9113C430.628 100.088 431.155 103.764 433.582 105.12C436.008 106.477 439.415 105.001 441.191 101.824Z" fill="#3F3D56"/>
<path d="M445.125 94.7921C446.901 91.6151 446.374 87.9398 443.948 86.5833C441.522 85.2267 438.115 86.7025 436.338 89.8795C434.562 93.0566 435.089 96.7318 437.515 98.0884C439.942 99.445 443.349 97.9692 445.125 94.7921Z" fill="#3F3D56"/>
<path d="M449.057 87.7633C450.834 84.5863 450.307 80.911 447.881 79.5545C445.454 78.1979 442.047 79.6737 440.271 82.8507C438.495 86.0278 439.022 89.703 441.448 91.0596C443.874 92.4161 447.281 90.9404 449.057 87.7633Z" fill="#3F3D56"/>
<path d="M487.989 46.3784C489.016 45.9493 490.013 45.4509 490.972 44.8867L480.488 36.5323L492.914 43.6061C495.568 41.6693 497.8 39.2114 499.472 36.3829C501.144 33.5543 502.221 30.4145 502.638 27.1553L481.028 26.4798L502.826 23.7638C502.8 20.4385 502.087 17.1544 500.732 14.1178C499.376 11.0813 497.407 8.35789 494.948 6.11884C492.49 3.87978 489.594 2.17342 486.445 1.10697C483.295 0.0405271 479.959 -0.362955 476.645 -0.0781218C473.332 0.206711 470.114 1.1737 467.192 2.76209C464.271 4.35048 461.709 6.52595 459.669 9.15179C457.628 11.7776 456.153 14.7971 455.335 18.0205C454.518 21.2439 454.376 24.6015 454.918 27.8824C453.318 28.5493 451.794 29.3859 450.373 30.3779L461.016 46.5426L448.037 32.2449C445.059 34.9337 442.799 38.3228 441.462 42.1053C440.124 45.8878 439.751 49.9442 440.377 53.9072C436.2 55.6473 432.598 58.5275 429.981 62.2183C427.364 65.9092 425.839 70.2619 425.579 74.7788C425.319 79.2958 426.335 83.7947 428.512 87.7613C430.688 91.7279 433.936 95.0021 437.886 97.2097C441.835 99.4172 446.326 100.469 450.845 100.245C455.364 100.021 459.728 98.5296 463.44 95.942C467.151 93.3544 470.059 89.7747 471.832 85.6122C473.605 81.4497 474.172 76.8723 473.466 72.4032C478.457 70.3245 482.605 66.6282 485.242 61.9082C487.879 57.1882 488.853 51.7186 488.008 46.3784H487.989Z" fill="#376BFA"/>
<path opacity="0.1" d="M443.126 38.3757C440.489 43.0966 439.521 48.5682 440.377 53.9071C436.2 55.6472 432.598 58.5274 429.981 62.2182C427.364 65.9091 425.839 70.2618 425.579 74.7787C425.319 79.2957 426.335 83.7946 428.512 87.7612C430.688 91.7278 433.936 95.002 437.886 97.2096C441.835 99.4171 446.326 100.469 450.845 100.245C455.363 100.021 459.728 98.5295 463.439 95.9419C467.151 93.3543 470.059 89.7746 471.832 85.6121C473.605 81.4496 474.172 76.8722 473.466 72.4031C478.265 70.4001 444.448 36.0303 443.126 38.3757Z" fill="black"/>
<path d="M474.427 296.354H480.108C483.218 296.354 486.201 297.589 488.4 299.789C490.599 301.988 491.835 304.971 491.835 308.081V325.489H462.7V308.081C462.7 304.971 463.936 301.988 466.135 299.789C468.334 297.589 471.317 296.354 474.427 296.354Z" fill="#3F3D56"/>
<path opacity="0.1" d="M474.427 296.354H480.108C483.218 296.354 486.201 297.589 488.4 299.789C490.599 301.988 491.835 304.971 491.835 308.081V325.489H462.7V308.081C462.7 304.971 463.936 301.988 466.135 299.789C468.334 297.589 471.317 296.354 474.427 296.354Z" fill="black"/>
<path d="M476.107 302.766C477.394 302.766 478.438 301.722 478.438 300.435C478.438 299.147 477.394 298.103 476.107 298.103C474.819 298.103 473.775 299.147 473.775 300.435C473.775 301.722 474.819 302.766 476.107 302.766Z" fill="#3F3D56"/>
<path d="M476.107 299.853C477.394 299.853 478.438 298.809 478.438 297.522C478.438 296.234 477.394 295.19 476.107 295.19C474.819 295.19 473.775 296.234 473.775 297.522C473.775 298.809 474.819 299.853 476.107 299.853Z" fill="#3F3D56"/>
<path d="M476.107 296.935C477.394 296.935 478.438 295.892 478.438 294.604C478.438 293.316 477.394 292.273 476.107 292.273C474.819 292.273 473.775 293.316 473.775 294.604C473.775 295.892 474.819 296.935 476.107 296.935Z" fill="#3F3D56"/>
<path d="M476.107 294.022C477.394 294.022 478.438 292.978 478.438 291.691C478.438 290.403 477.394 289.359 476.107 289.359C474.819 289.359 473.775 290.403 473.775 291.691C473.775 292.978 474.819 294.022 476.107 294.022Z" fill="#3F3D56"/>
<path d="M476.107 291.109C477.394 291.109 478.438 290.066 478.438 288.778C478.438 287.491 477.394 286.447 476.107 286.447C474.819 286.447 473.775 287.491 473.775 288.778C473.775 290.066 474.819 291.109 476.107 291.109Z" fill="#3F3D56"/>
<path d="M476.107 288.196C477.394 288.196 478.438 287.152 478.438 285.865C478.438 284.577 477.394 283.533 476.107 283.533C474.819 283.533 473.775 284.577 473.775 285.865C473.775 287.152 474.819 288.196 476.107 288.196Z" fill="#3F3D56"/>
<path d="M476.107 285.283C477.394 285.283 478.438 284.239 478.438 282.952C478.438 281.664 477.394 280.62 476.107 280.62C474.819 280.62 473.775 281.664 473.775 282.952C473.775 284.239 474.819 285.283 476.107 285.283Z" fill="#3F3D56"/>
<path d="M479.601 286.447C480.889 286.447 481.933 285.403 481.933 284.115C481.933 282.828 480.889 281.784 479.601 281.784C478.314 281.784 477.27 282.828 477.27 284.115C477.27 285.403 478.314 286.447 479.601 286.447Z" fill="#3F3D56"/>
<path d="M481.933 285.283C483.221 285.283 484.264 284.239 484.264 282.952C484.264 281.664 483.221 280.62 481.933 280.62C480.645 280.62 479.602 281.664 479.602 282.952C479.602 284.239 480.645 285.283 481.933 285.283Z" fill="#3F3D56"/>
<path d="M484.264 284.115C485.552 284.115 486.595 283.071 486.595 281.784C486.595 280.496 485.552 279.452 484.264 279.452C482.976 279.452 481.933 280.496 481.933 281.784C481.933 283.071 482.976 284.115 484.264 284.115Z" fill="#3F3D56"/>
<path d="M476.107 282.37C477.394 282.37 478.438 281.326 478.438 280.039C478.438 278.751 477.394 277.708 476.107 277.708C474.819 277.708 473.775 278.751 473.775 280.039C473.775 281.326 474.819 282.37 476.107 282.37Z" fill="#3F3D56"/>
<path d="M476.107 279.457C477.394 279.457 478.438 278.413 478.438 277.126C478.438 275.838 477.394 274.794 476.107 274.794C474.819 274.794 473.775 275.838 473.775 277.126C473.775 278.413 474.819 279.457 476.107 279.457Z" fill="#3F3D56"/>
<path d="M476.107 276.54C477.394 276.54 478.438 275.496 478.438 274.208C478.438 272.921 477.394 271.877 476.107 271.877C474.819 271.877 473.775 272.921 473.775 274.208C473.775 275.496 474.819 276.54 476.107 276.54Z" fill="#3F3D56"/>
<path d="M476.107 273.626C477.394 273.626 478.438 272.583 478.438 271.295C478.438 270.007 477.394 268.964 476.107 268.964C474.819 268.964 473.775 270.007 473.775 271.295C473.775 272.583 474.819 273.626 476.107 273.626Z" fill="#3F3D56"/>
<path d="M485.77 263.78C485.191 263.865 484.61 263.926 484.025 263.963C484.566 263.491 485.068 262.977 485.526 262.425C485.203 261.445 484.728 260.522 484.119 259.69C483.54 260.015 482.902 260.217 482.242 260.286C481.665 260.37 481.084 260.431 480.502 260.469C481.285 259.726 482.029 258.943 482.73 258.123C481.049 256.599 478.894 255.699 476.628 255.574C474.362 255.449 472.122 256.107 470.283 257.437C468.444 258.767 467.118 260.688 466.527 262.88C465.936 265.071 466.116 267.399 467.037 269.473C467.958 271.547 469.564 273.242 471.585 274.273C473.607 275.305 475.922 275.61 478.141 275.138C480.361 274.666 482.352 273.446 483.779 271.681C485.206 269.916 485.983 267.715 485.981 265.446C485.981 264.875 485.931 264.305 485.831 263.743L485.77 263.78Z" fill="#376BFA"/>
<path d="M493.556 275.362C492.961 275.727 492.291 275.952 491.596 276.019C491.019 276.103 490.437 276.164 489.855 276.202C490.474 275.647 491.051 275.048 491.582 274.41C491.095 274.282 490.593 274.216 490.09 274.213C488.703 274.21 487.36 274.702 486.302 275.6C485.245 276.498 484.542 277.743 484.319 279.113C484.097 280.482 484.37 281.886 485.089 283.072C485.808 284.259 486.926 285.15 488.243 285.587C489.56 286.024 490.989 285.977 492.274 285.455C493.56 284.933 494.617 283.97 495.257 282.739C495.897 281.508 496.077 280.089 495.765 278.737C495.454 277.385 494.671 276.189 493.556 275.362Z" fill="#376BFA"/>
<path d="M472.608 286.447C473.895 286.447 474.939 285.403 474.939 284.115C474.939 282.828 473.895 281.784 472.608 281.784C471.32 281.784 470.276 282.828 470.276 284.115C470.276 285.403 471.32 286.447 472.608 286.447Z" fill="#3F3D56"/>
<path d="M470.276 285.283C471.564 285.283 472.607 284.239 472.607 282.952C472.607 281.664 471.564 280.62 470.276 280.62C468.989 280.62 467.945 281.664 467.945 282.952C467.945 284.239 468.989 285.283 470.276 285.283Z" fill="#3F3D56"/>
<path d="M467.95 284.115C469.237 284.115 470.281 283.071 470.281 281.784C470.281 280.496 469.237 279.452 467.95 279.452C466.662 279.452 465.618 280.496 465.618 281.784C465.618 283.071 466.662 284.115 467.95 284.115Z" fill="#3F3D56"/>
<path d="M458.671 275.362C459.266 275.727 459.937 275.952 460.632 276.019C461.209 276.103 461.79 276.164 462.372 276.202C461.754 275.647 461.177 275.048 460.646 274.41C461.133 274.282 461.634 274.216 462.138 274.213C463.525 274.21 464.868 274.702 465.925 275.6C466.983 276.498 467.686 277.743 467.908 279.113C468.131 280.482 467.858 281.886 467.139 283.072C466.42 284.259 465.302 285.15 463.985 285.587C462.668 286.024 461.238 285.977 459.953 285.455C458.668 284.933 457.61 283.97 456.97 282.739C456.331 281.508 456.15 280.089 456.462 278.737C456.774 277.385 457.557 276.189 458.671 275.362Z" fill="#376BFA"/>
<path d="M474.427 298.103H480.108C483.218 298.103 486.201 299.339 488.4 301.538C490.599 303.737 491.835 306.72 491.835 309.83V325.249C491.835 325.777 491.626 326.283 491.253 326.656C490.88 327.029 490.374 327.238 489.846 327.238H464.689C464.162 327.238 463.656 327.029 463.283 326.656C462.91 326.283 462.7 325.777 462.7 325.249V309.83C462.7 306.72 463.936 303.737 466.135 301.538C468.334 299.339 471.317 298.103 474.427 298.103Z" fill="#3F3D56"/>
<g opacity="0.1">
<path opacity="0.1" d="M485.948 264.418C485.713 264.673 485.461 264.911 485.193 265.131C485.46 265.131 485.728 265.089 485.99 265.061C485.981 264.845 485.972 264.63 485.948 264.418Z" fill="black"/>
<path opacity="0.1" d="M481.698 261.632C482.28 261.594 482.862 261.533 483.439 261.449C483.961 261.385 484.471 261.246 484.954 261.036C484.715 260.568 484.443 260.118 484.138 259.69C483.846 259.868 483.53 260.002 483.199 260.089C482.74 260.641 482.238 261.157 481.698 261.632Z" fill="black"/>
<path opacity="0.1" d="M467.363 266.637C467.359 264.859 467.836 263.112 468.741 261.582C469.647 260.051 470.949 258.793 472.509 257.941C474.07 257.088 475.832 256.672 477.609 256.736C479.386 256.8 481.113 257.343 482.608 258.306L482.758 258.147C481.783 257.279 480.645 256.612 479.411 256.186C478.176 255.76 476.87 255.582 475.567 255.663C474.263 255.743 472.989 256.081 471.816 256.657C470.644 257.232 469.598 258.034 468.737 259.016C467.876 259.998 467.218 261.141 466.8 262.378C466.383 263.615 466.215 264.923 466.305 266.226C466.395 267.528 466.742 268.8 467.327 269.968C467.911 271.136 468.72 272.177 469.708 273.031C468.191 271.246 467.36 268.98 467.363 266.637Z" fill="black"/>
</g>
<g opacity="0.1">
<path opacity="0.1" d="M489.856 277.37C490.438 277.327 491.019 277.266 491.596 277.182C492.291 277.117 492.962 276.894 493.557 276.53C494.217 277.014 494.766 277.632 495.171 278.344C495.575 279.055 495.824 279.844 495.902 280.658C495.925 280.452 495.936 280.246 495.935 280.039C495.939 279.128 495.729 278.229 495.322 277.414C494.914 276.599 494.321 275.891 493.59 275.348C492.995 275.713 492.324 275.938 491.629 276.005L491.16 276.061C490.761 276.531 490.325 276.969 489.856 277.37Z" fill="black"/>
<path opacity="0.1" d="M490.1 275.376C490.297 275.376 490.489 275.376 490.681 275.418C490.986 275.095 491.286 274.747 491.591 274.41C491.104 274.282 490.603 274.216 490.1 274.213C488.554 274.213 487.072 274.826 485.98 275.919C484.887 277.012 484.273 278.494 484.273 280.039C484.273 280.236 484.273 280.433 484.302 280.62C484.447 279.183 485.12 277.851 486.191 276.883C487.263 275.914 488.655 275.377 490.1 275.376Z" fill="black"/>
</g>
<g opacity="0.1">
<path opacity="0.1" d="M462.353 277.37C461.772 277.327 461.19 277.266 460.613 277.182C459.918 277.117 459.248 276.894 458.652 276.53C457.993 277.014 457.443 277.632 457.039 278.344C456.635 279.055 456.385 279.844 456.307 280.658C456.284 280.452 456.273 280.246 456.274 280.039C456.27 279.128 456.48 278.229 456.888 277.414C457.295 276.599 457.888 275.891 458.619 275.348C459.214 275.713 459.885 275.938 460.58 276.005L461.049 276.061C461.45 276.53 461.886 276.968 462.353 277.37Z" fill="black"/>
<path opacity="0.1" d="M462.119 275.376C461.922 275.376 461.729 275.376 461.537 275.418C461.232 275.095 460.932 274.747 460.627 274.41C461.114 274.282 461.615 274.216 462.119 274.213C463.664 274.213 465.146 274.826 466.238 275.919C467.331 277.012 467.945 278.494 467.945 280.039C467.945 280.236 467.945 280.433 467.917 280.62C467.771 279.183 467.098 277.851 466.027 276.883C464.956 275.914 463.563 275.377 462.119 275.376Z" fill="black"/>
</g>
<path d="M26.7379 252.836H71.5542C74.6644 252.836 77.6473 254.072 79.8465 256.271C82.0458 258.47 83.2813 261.453 83.2813 264.564V321.084H15.0107V264.564C15.0107 261.453 16.2463 258.47 18.4455 256.271C20.6448 254.072 23.6276 252.836 26.7379 252.836Z" fill="#3F3D56"/>
<path opacity="0.1" d="M26.7379 252.836H71.5542C74.6644 252.836 77.6473 254.072 79.8465 256.271C82.0458 258.47 83.2813 261.453 83.2813 264.564V321.084H15.0107V264.564C15.0107 261.453 16.2463 258.47 18.4455 256.271C20.6448 254.072 23.6276 252.836 26.7379 252.836Z" fill="black"/>
<path d="M46.4255 267.833C49.441 267.833 51.8856 265.389 51.8856 262.373C51.8856 259.358 49.441 256.913 46.4255 256.913C43.4099 256.913 40.9653 259.358 40.9653 262.373C40.9653 265.389 43.4099 267.833 46.4255 267.833Z" fill="#3F3D56"/>
<path d="M46.4255 261.008C49.441 261.008 51.8856 258.563 51.8856 255.548C51.8856 252.532 49.441 250.088 46.4255 250.088C43.4099 250.088 40.9653 252.532 40.9653 255.548C40.9653 258.563 43.4099 261.008 46.4255 261.008Z" fill="#3F3D56"/>
<path d="M46.4255 254.178C49.441 254.178 51.8856 251.733 51.8856 248.718C51.8856 245.702 49.441 243.258 46.4255 243.258C43.4099 243.258 40.9653 245.702 40.9653 248.718C40.9653 251.733 43.4099 254.178 46.4255 254.178Z" fill="#3F3D56"/>
<path d="M46.4255 247.353C49.441 247.353 51.8856 244.909 51.8856 241.893C51.8856 238.877 49.441 236.433 46.4255 236.433C43.4099 236.433 40.9653 238.877 40.9653 241.893C40.9653 244.909 43.4099 247.353 46.4255 247.353Z" fill="#3F3D56"/>
<path d="M46.4255 240.523C49.441 240.523 51.8856 238.079 51.8856 235.063C51.8856 232.048 49.441 229.603 46.4255 229.603C43.4099 229.603 40.9653 232.048 40.9653 235.063C40.9653 238.079 43.4099 240.523 46.4255 240.523Z" fill="#3F3D56"/>
<path d="M46.4255 233.698C49.441 233.698 51.8856 231.253 51.8856 228.238C51.8856 225.222 49.441 222.778 46.4255 222.778C43.4099 222.778 40.9653 225.222 40.9653 228.238C40.9653 231.253 43.4099 233.698 46.4255 233.698Z" fill="#3F3D56"/>
<path d="M46.4255 226.873C49.441 226.873 51.8856 224.428 51.8856 221.413C51.8856 218.397 49.441 215.952 46.4255 215.952C43.4099 215.952 40.9653 218.397 40.9653 221.413C40.9653 224.428 43.4099 226.873 46.4255 226.873Z" fill="#3F3D56"/>
<path d="M54.6154 229.603C57.631 229.603 60.0756 227.158 60.0756 224.143C60.0756 221.127 57.631 218.682 54.6154 218.682C51.5999 218.682 49.1553 221.127 49.1553 224.143C49.1553 227.158 51.5999 229.603 54.6154 229.603Z" fill="#3F3D56"/>
<path d="M60.0754 226.873C63.0909 226.873 65.5355 224.428 65.5355 221.413C65.5355 218.397 63.0909 215.952 60.0754 215.952C57.0598 215.952 54.6152 218.397 54.6152 221.413C54.6152 224.428 57.0598 226.873 60.0754 226.873Z" fill="#3F3D56"/>
<path d="M65.5402 224.138C68.5558 224.138 71.0004 221.693 71.0004 218.678C71.0004 215.662 68.5558 213.218 65.5402 213.218C62.5247 213.218 60.0801 215.662 60.0801 218.678C60.0801 221.693 62.5247 224.138 65.5402 224.138Z" fill="#3F3D56"/>
<path d="M46.4255 220.043C49.441 220.043 51.8856 217.598 51.8856 214.583C51.8856 211.567 49.441 209.123 46.4255 209.123C43.4099 209.123 40.9653 211.567 40.9653 214.583C40.9653 217.598 43.4099 220.043 46.4255 220.043Z" fill="#3F3D56"/>
<path d="M46.4255 213.218C49.441 213.218 51.8856 210.773 51.8856 207.758C51.8856 204.742 49.441 202.298 46.4255 202.298C43.4099 202.298 40.9653 204.742 40.9653 207.758C40.9653 210.773 43.4099 213.218 46.4255 213.218Z" fill="#3F3D56"/>
<path d="M46.4255 206.388C49.441 206.388 51.8856 203.944 51.8856 200.928C51.8856 197.912 49.441 195.468 46.4255 195.468C43.4099 195.468 40.9653 197.912 40.9653 200.928C40.9653 203.944 43.4099 206.388 46.4255 206.388Z" fill="#3F3D56"/>
<path d="M46.4255 199.563C49.441 199.563 51.8856 197.118 51.8856 194.102C51.8856 191.087 49.441 188.642 46.4255 188.642C43.4099 188.642 40.9653 191.087 40.9653 194.102C40.9653 197.118 43.4099 199.563 46.4255 199.563Z" fill="#3F3D56"/>
<path d="M69.068 176.488C67.7139 176.685 66.3535 176.829 64.9869 176.92C66.2516 175.812 67.4264 174.606 68.5004 173.312C67.7554 171.02 66.657 168.858 65.2449 166.905C63.9012 167.673 62.4123 168.152 60.8731 168.312C59.5221 168.509 58.1571 168.654 56.792 168.748C58.5886 167.294 60.2539 165.094 62.0129 163.307C57.9348 159.603 52.6747 157.467 47.169 157.279C41.6633 157.09 36.2695 158.862 31.9478 162.279C27.6262 165.695 24.6573 170.534 23.5697 175.935C22.4821 181.335 23.3464 186.946 26.0088 191.769C28.6712 196.592 32.9588 200.313 38.1082 202.271C43.2576 204.228 48.9346 204.295 54.1284 202.458C59.3222 200.622 63.6956 197.002 66.4701 192.243C69.2446 187.483 70.24 181.894 69.2791 176.469L69.068 176.488Z" fill="#376BFA"/>
<path d="M87.3154 203.629C86.0301 204.535 84.3226 204.924 82.7231 205.159C81.3674 205.36 80.0071 205.501 78.642 205.595C80.0493 204.464 81.344 202.888 82.6855 201.401C79.3987 200.529 75.9046 200.914 72.8862 202.48C69.8679 204.047 67.542 206.682 66.3633 209.872C65.1845 213.062 65.2375 216.577 66.512 219.729C67.7864 222.882 70.1907 225.447 73.255 226.921C76.3192 228.396 79.8233 228.675 83.0823 227.704C86.3414 226.733 89.1213 224.582 90.8788 221.67C92.6362 218.759 93.2449 215.297 92.586 211.961C91.927 208.625 90.0478 205.654 87.3154 203.629Z" fill="#376BFA"/>
<path d="M38.2302 229.603C41.2457 229.603 43.6903 227.158 43.6903 224.143C43.6903 221.127 41.2457 218.682 38.2302 218.682C35.2146 218.682 32.77 221.127 32.77 224.143C32.77 227.158 35.2146 229.603 38.2302 229.603Z" fill="#3F3D56"/>
<path d="M32.7702 226.873C35.7858 226.873 38.2304 224.428 38.2304 221.413C38.2304 218.397 35.7858 215.952 32.7702 215.952C29.7546 215.952 27.3101 218.397 27.3101 221.413C27.3101 224.428 29.7546 226.873 32.7702 226.873Z" fill="#3F3D56"/>
<path d="M27.3102 224.138C30.3258 224.138 32.7704 221.693 32.7704 218.678C32.7704 215.662 30.3258 213.218 27.3102 213.218C24.2947 213.218 21.8501 215.662 21.8501 218.678C21.8501 221.693 24.2947 224.138 27.3102 224.138Z" fill="#3F3D56"/>
<path d="M5.53499 203.629C6.82028 204.535 8.52775 204.924 10.132 205.159C11.483 205.36 12.8433 205.501 14.2084 205.595C12.8011 204.464 11.5064 202.888 10.1649 201.401C13.4517 200.529 16.9458 200.914 19.9642 202.48C22.9825 204.047 25.3084 206.682 26.4871 209.872C27.6659 213.062 27.6129 216.577 26.3384 219.729C25.064 222.882 22.6597 225.447 19.5954 226.921C16.5312 228.396 13.0271 228.675 9.76805 227.704C6.50898 226.733 3.72909 224.582 1.97163 221.67C0.214176 218.759 -0.394557 215.297 0.264394 211.961C0.923345 208.625 2.80262 205.654 5.53499 203.629Z" fill="#376BFA"/>
<path d="M26.7379 256.913H71.5542C74.6644 256.913 77.6473 258.149 79.8465 260.348C82.0458 262.547 83.2813 265.53 83.2813 268.64V323.199C83.2813 323.727 83.0718 324.233 82.6988 324.606C82.3258 324.979 81.8199 325.188 81.2924 325.188H17.009C16.7471 325.19 16.4874 325.139 16.245 325.04C16.0026 324.94 15.7823 324.794 15.5966 324.609C15.4109 324.424 15.2636 324.205 15.163 323.963C15.0625 323.721 15.0107 323.461 15.0107 323.199V268.64C15.0107 265.53 16.2463 262.547 18.4455 260.348C20.6448 258.149 23.6276 256.913 26.7379 256.913Z" fill="#3F3D56"/>
<g opacity="0.1">
<path opacity="0.1" d="M69.4806 177.98C68.9317 178.577 68.3424 179.135 67.7168 179.65C68.3407 179.608 68.9693 179.552 69.5931 179.491C69.5697 178.984 69.5368 178.477 69.4806 177.98Z" fill="black"/>
<path opacity="0.1" d="M59.5269 171.46C60.8919 171.366 62.2522 171.225 63.6032 171.023C64.8269 170.881 66.0241 170.565 67.1589 170.085C66.6041 168.983 65.9642 167.926 65.245 166.924C64.5668 167.343 63.8301 167.659 63.0591 167.862C61.9767 169.151 60.7957 170.354 59.5269 171.46Z" fill="black"/>
<path opacity="0.1" d="M25.9403 183.182C25.932 179.015 27.0478 174.923 29.17 171.337C31.2922 167.751 34.3424 164.804 37.9991 162.806C41.6558 160.807 45.7837 159.833 49.948 159.984C54.1122 160.135 58.1587 161.406 61.6611 163.664C61.7783 163.542 61.8956 163.406 62.0129 163.288C59.7312 161.227 57.0625 159.64 54.1619 158.62C51.2613 157.599 48.1867 157.166 45.117 157.345C42.0474 157.524 39.044 158.311 36.2815 159.662C33.519 161.012 31.0526 162.898 29.0258 165.21C26.999 167.523 25.4522 170.215 24.4755 173.131C23.4988 176.046 23.1116 179.127 23.3365 182.193C23.5614 185.26 24.3939 188.251 25.7855 190.993C27.1772 193.735 29.1002 196.173 31.4426 198.165C27.8853 193.984 25.9345 188.672 25.9403 183.182Z" fill="black"/>
</g>
<g opacity="0.1">
<path opacity="0.1" d="M78.6416 208.325C80.0051 208.238 81.3654 208.092 82.7226 207.889C84.3222 207.659 86.0062 207.27 87.315 206.36C88.8542 207.497 90.1368 208.946 91.0791 210.612C92.0215 212.277 92.6026 214.123 92.7845 216.028C92.8314 215.559 92.8596 215.09 92.8596 214.588C92.8609 212.456 92.3611 210.353 91.4005 208.45C90.4398 206.546 89.0451 204.895 87.3291 203.63C86.0438 204.535 84.3363 204.925 82.7367 205.159C82.3755 205.211 82.019 205.253 81.6625 205.295C80.7372 206.383 79.7271 207.397 78.6416 208.325Z" fill="black"/>
<path opacity="0.1" d="M79.1812 203.663C79.6391 203.67 80.0963 203.701 80.551 203.756C81.264 202.997 81.9582 202.19 82.6759 201.411C80.6553 200.866 78.5362 200.795 76.4836 201.203C74.4309 201.61 72.5 202.486 70.8411 203.762C69.1821 205.038 67.84 206.679 66.9189 208.559C65.9979 210.438 65.5229 212.504 65.5309 214.597C65.5309 215.066 65.5543 215.535 65.5965 215.962C65.9327 212.592 67.509 209.468 70.0193 207.195C72.5296 204.922 75.7949 203.663 79.1812 203.663Z" fill="black"/>
</g>
<g opacity="0.1">
<path opacity="0.1" d="M14.2039 208.325C12.8404 208.238 11.4816 208.092 10.1275 207.889C8.52327 207.659 6.8158 207.27 5.53051 206.36C3.99385 207.499 2.71399 208.948 1.77409 210.613C0.834197 212.279 0.255309 214.124 0.0750545 216.028C0.028146 215.559 1.03963e-06 215.09 1.03963e-06 214.588C-0.000832608 212.455 0.499701 210.352 1.46121 208.449C2.42271 206.545 3.81825 204.895 5.5352 203.63C6.82049 204.535 8.52796 204.925 10.1322 205.159C10.4887 205.211 10.8452 205.253 11.2017 205.295C12.1223 206.382 13.126 207.395 14.2039 208.325Z" fill="black"/>
<path opacity="0.1" d="M13.6548 203.663C13.1969 203.67 12.7397 203.701 12.2851 203.756C11.5721 202.997 10.8779 202.19 10.1602 201.411C12.1808 200.866 14.2999 200.795 16.3525 201.203C18.4052 201.61 20.3361 202.486 21.995 203.762C23.6539 205.038 24.9961 206.679 25.9171 208.559C26.8381 210.438 27.3131 212.504 27.3052 214.597C27.3052 215.066 27.3052 215.535 27.2395 215.962C26.9033 212.592 25.3271 209.468 22.8168 207.195C20.3065 204.922 17.0412 203.663 13.6548 203.663Z" fill="black"/>
</g>
<path d="M318.968 326.549L227.497 325.376L227.764 323.031L232.187 284.331H312.518L318.429 323.031L318.879 325.962L318.968 326.549Z" fill="#D0D2D5"/>
<path opacity="0.1" d="M318.879 325.962H273.232L227.497 325.376L227.764 323.031H318.429L318.879 325.962Z" fill="black"/>
<path d="M333.627 323.617H212.251V326.548H333.627V323.617Z" fill="#D0D2D5"/>
<path d="M449.43 51.8903C449.44 49.8657 448.646 47.92 447.221 46.481C445.797 45.0419 443.86 44.2272 441.835 44.2161H102.87C101.867 44.221 100.875 44.4234 99.9507 44.8117C99.026 45.2 98.1869 45.7667 97.4813 46.4793C96.7756 47.1919 96.2172 48.0366 95.838 48.965C95.4588 49.8934 95.2661 50.8874 95.2711 51.8903V257.349H449.43V51.8903Z" fill="#444053"/>
<path d="M95.271 255.304V279.373C95.2679 280.372 95.4623 281.363 95.8428 282.287C96.2234 283.212 96.7827 284.052 97.4887 284.76C98.1948 285.467 99.0336 286.029 99.9571 286.412C100.881 286.794 101.871 286.991 102.87 286.991H441.835C443.85 286.991 445.781 286.19 447.206 284.766C448.63 283.342 449.43 281.41 449.43 279.396V255.304H95.271Z" fill="#D0D2D5"/>
<path opacity="0.1" d="M436.53 57.116H109.93V241.818H436.53V57.116Z" fill="#376BFA"/>
<path d="M274.109 277.839C275.309 277.84 276.492 277.568 277.572 277.045C278.651 276.522 279.597 275.76 280.339 274.818C280.563 274.53 280.768 274.227 280.953 273.913L276.61 273.2L281.3 273.232C281.753 272.253 281.999 271.191 282.025 270.112C282.051 269.033 281.855 267.961 281.451 266.961L275.151 270.244L280.963 265.976C280.429 265.019 279.703 264.183 278.829 263.521C277.956 262.859 276.955 262.386 275.889 262.131C274.823 261.876 273.716 261.846 272.637 262.042C271.559 262.237 270.533 262.655 269.625 263.268C268.716 263.88 267.945 264.675 267.36 265.602C266.774 266.528 266.388 267.566 266.225 268.65C266.062 269.733 266.125 270.839 266.412 271.897C266.698 272.955 267.202 273.941 267.889 274.795C268.627 275.74 269.571 276.506 270.649 277.033C271.726 277.561 272.91 277.836 274.109 277.839Z" fill="#376BFA"/>
<path opacity="0.1" d="M282.027 286.967L318.517 323.617L312.921 286.967H282.027Z" fill="black"/>
<path d="M371.154 82.2681H119.021V216.15H371.154V82.2681Z" fill="white"/>
<path opacity="0.1" d="M203.409 117.168H133.084V120.813H203.409V117.168Z" fill="#376BFA"/>
<path opacity="0.1" d="M146.111 97.8933H139.337V117.168H146.111V97.8933Z" fill="#376BFA"/>
<path opacity="0.1" d="M156.008 97.8933H149.234V117.168H156.008V97.8933Z" fill="#376BFA"/>
<path opacity="0.1" d="M165.906 97.8933H159.132V117.168H165.906V97.8933Z" fill="#376BFA"/>
<path opacity="0.1" d="M175.803 97.8933H169.03V117.168H175.803V97.8933Z" fill="#376BFA"/>
<path opacity="0.1" d="M185.701 97.8933H178.928V117.168H185.701V97.8933Z" fill="#376BFA"/>
<path opacity="0.1" d="M195.599 97.8933H188.825V117.168H195.599V97.8933Z" fill="#376BFA"/>
<path opacity="0.1" d="M146.111 101.543H139.337V103.625H146.111V101.543Z" fill="#376BFA"/>
<path opacity="0.1" d="M156.008 101.543H149.234V103.625H156.008V101.543Z" fill="#376BFA"/>
<path opacity="0.1" d="M165.906 101.543H159.132V103.625H165.906V101.543Z" fill="#376BFA"/>
<path opacity="0.1" d="M175.803 101.543H169.03V103.625H175.803V101.543Z" fill="#376BFA"/>
<path opacity="0.1" d="M185.701 101.543H178.928V103.625H185.701V101.543Z" fill="#376BFA"/>
<path opacity="0.1" d="M195.599 101.543H188.825V103.625H195.599V101.543Z" fill="#376BFA"/>
<path opacity="0.1" d="M146.111 110.92H139.337V113.003H146.111V110.92Z" fill="#376BFA"/>
<path opacity="0.1" d="M156.008 110.92H149.234V113.003H156.008V110.92Z" fill="#376BFA"/>
<path opacity="0.1" d="M165.906 110.92H159.132V113.003H165.906V110.92Z" fill="#376BFA"/>
<path opacity="0.1" d="M175.803 110.92H169.03V113.003H175.803V110.92Z" fill="#376BFA"/>
<path opacity="0.1" d="M185.701 110.92H178.928V113.003H185.701V110.92Z" fill="#376BFA"/>
<path opacity="0.1" d="M195.599 110.92H188.825V113.003H195.599V110.92Z" fill="#376BFA"/>
<path opacity="0.1" d="M357.607 126.545H287.282V130.19H357.607V126.545Z" fill="#376BFA"/>
<path opacity="0.1" d="M300.308 107.27H293.534V126.545H300.308V107.27Z" fill="#376BFA"/>
<path opacity="0.1" d="M310.205 107.27H303.432V126.545H310.205V107.27Z" fill="#376BFA"/>
<path opacity="0.1" d="M320.103 107.27H313.33V126.545H320.103V107.27Z" fill="#376BFA"/>
<path opacity="0.1" d="M330.001 107.27H323.228V126.545H330.001V107.27Z" fill="#376BFA"/>
<path opacity="0.1" d="M339.899 107.27H333.125V126.545H339.899V107.27Z" fill="#376BFA"/>
<path opacity="0.1" d="M349.797 107.27H343.023V126.545H349.797V107.27Z" fill="#376BFA"/>
<path opacity="0.1" d="M300.308 110.92H293.534V113.003H300.308V110.92Z" fill="#376BFA"/>
<path opacity="0.1" d="M310.205 110.92H303.432V113.003H310.205V110.92Z" fill="#376BFA"/>
<path opacity="0.1" d="M320.103 110.92H313.33V113.003H320.103V110.92Z" fill="#376BFA"/>
<path opacity="0.1" d="M330.001 110.92H323.228V113.003H330.001V110.92Z" fill="#376BFA"/>
<path opacity="0.1" d="M339.899 110.92H333.125V113.003H339.899V110.92Z" fill="#376BFA"/>
<path opacity="0.1" d="M349.797 110.92H343.023V113.003H349.797V110.92Z" fill="#376BFA"/>
<path opacity="0.1" d="M300.308 120.297H293.534V122.38H300.308V120.297Z" fill="#376BFA"/>
<path opacity="0.1" d="M310.205 120.297H303.432V122.38H310.205V120.297Z" fill="#376BFA"/>
<path opacity="0.1" d="M320.103 120.297H313.33V122.38H320.103V120.297Z" fill="#376BFA"/>
<path opacity="0.1" d="M330.001 120.297H323.228V122.38H330.001V120.297Z" fill="#376BFA"/>
<path opacity="0.1" d="M339.899 120.297H333.125V122.38H339.899V120.297Z" fill="#376BFA"/>
<path opacity="0.1" d="M349.797 120.297H343.023V122.38H349.797V120.297Z" fill="#376BFA"/>
<path opacity="0.1" d="M357.607 153.114H287.282V156.759H357.607V153.114Z" fill="#376BFA"/>
<path opacity="0.1" d="M300.308 133.839H293.534V153.114H300.308V133.839Z" fill="#376BFA"/>
<path opacity="0.1" d="M310.205 133.839H303.432V153.114H310.205V133.839Z" fill="#376BFA"/>
<path opacity="0.1" d="M320.103 133.839H313.33V153.114H320.103V133.839Z" fill="#376BFA"/>
<path opacity="0.1" d="M330.001 133.839H323.228V153.114H330.001V133.839Z" fill="#376BFA"/>
<path opacity="0.1" d="M339.899 133.839H333.125V153.114H339.899V133.839Z" fill="#376BFA"/>
<path opacity="0.1" d="M349.797 133.839H343.023V153.114H349.797V133.839Z" fill="#376BFA"/>
<path opacity="0.1" d="M300.308 137.484H293.534V139.567H300.308V137.484Z" fill="#376BFA"/>
<path opacity="0.1" d="M310.205 137.484H303.432V139.567H310.205V137.484Z" fill="#376BFA"/>
<path opacity="0.1" d="M320.103 137.484H313.33V139.567H320.103V137.484Z" fill="#376BFA"/>
<path opacity="0.1" d="M330.001 137.484H323.228V139.567H330.001V137.484Z" fill="#376BFA"/>
<path opacity="0.1" d="M339.899 137.484H333.125V139.567H339.899V137.484Z" fill="#376BFA"/>
<path opacity="0.1" d="M349.797 137.484H343.023V139.567H349.797V137.484Z" fill="#376BFA"/>
<path opacity="0.1" d="M300.308 146.861H293.534V148.944H300.308V146.861Z" fill="#376BFA"/>
<path opacity="0.1" d="M310.205 146.861H303.432V148.944H310.205V146.861Z" fill="#376BFA"/>
<path opacity="0.1" d="M320.103 146.861H313.33V148.944H320.103V146.861Z" fill="#376BFA"/>
<path opacity="0.1" d="M330.001 146.861H323.228V148.944H330.001V146.861Z" fill="#376BFA"/>
<path opacity="0.1" d="M339.899 146.861H333.125V148.944H339.899V146.861Z" fill="#376BFA"/>
<path opacity="0.1" d="M349.797 146.861H343.023V148.944H349.797V146.861Z" fill="#376BFA"/>
<path opacity="0.1" d="M176.216 158.391C175.69 157.721 175.21 157.016 174.781 156.28L184.908 154.62L173.936 154.709C172.886 152.423 172.313 149.947 172.253 147.432C172.192 144.917 172.646 142.416 173.585 140.083L188.276 147.705L174.729 137.747C175.995 135.548 177.7 133.634 179.739 132.124C181.778 130.614 184.106 129.54 186.578 128.97C189.05 128.4 191.613 128.345 194.107 128.81C196.601 129.274 198.972 130.248 201.073 131.67C203.174 133.093 204.959 134.933 206.317 137.075C207.675 139.218 208.577 141.618 208.966 144.125C209.355 146.632 209.223 149.192 208.579 151.646C207.934 154.1 206.791 156.394 205.22 158.386C206.044 159.427 206.753 160.553 207.335 161.745L194.201 168.57L208.212 163.879C209.198 166.787 209.442 169.895 208.922 172.92C208.403 175.946 207.137 178.795 205.238 181.207C207.381 183.93 208.713 187.2 209.084 190.645C209.455 194.089 208.849 197.568 207.336 200.685C205.823 203.801 203.463 206.428 200.527 208.267C197.591 210.105 194.196 211.08 190.732 211.08C187.268 211.08 183.873 210.105 180.937 208.267C178.001 206.428 175.641 203.801 174.128 200.685C172.614 197.568 172.009 194.089 172.38 190.645C172.751 187.2 174.083 183.93 176.226 181.207C173.667 177.954 172.276 173.936 172.276 169.797C172.276 165.658 173.667 161.64 176.226 158.386L176.216 158.391Z" fill="#376BFA"/>
<path opacity="0.1" d="M209.179 169.804C209.184 173.943 207.793 177.963 205.229 181.212C207.371 183.935 208.704 187.205 209.075 190.649C209.446 194.094 208.84 197.573 207.327 200.689C205.814 203.805 203.454 206.433 200.518 208.271C197.581 210.11 194.187 211.084 190.723 211.084C187.258 211.084 183.864 210.11 180.928 208.271C177.991 206.433 175.632 203.805 174.118 200.689C172.605 197.573 171.999 194.094 172.37 190.649C172.741 187.205 174.074 183.935 176.216 181.212C173.744 178.074 209.179 167.731 209.179 169.804Z" fill="#376BFA"/>
<path opacity="0.2" d="M193.685 215.995C193.718 216.046 193.741 216.098 193.774 216.149H187.507C187.54 216.098 187.563 216.046 187.596 215.995C187.058 215.055 186.78 213.99 186.789 212.908C186.788 212.167 186.917 211.432 187.169 210.736C187.516 210.792 187.948 210.853 188.445 210.905C189.899 211.05 191.363 211.05 192.817 210.905C193.23 210.863 193.666 210.802 194.107 210.736C194.108 210.747 194.108 210.758 194.107 210.769C194.354 211.455 194.48 212.179 194.478 212.908C194.492 213.989 194.218 215.054 193.685 215.995Z" fill="#3F3D56"/>
<path opacity="0.1" d="M171.164 216.159H136.311C136.232 215.957 136.161 215.746 136.1 215.54C134.871 211.587 135.015 207.335 136.508 203.475C133.102 201.122 130.586 197.692 129.364 193.737C128.143 189.782 128.286 185.531 129.772 181.667C129.071 181.181 128.404 180.648 127.774 180.072L136.959 175.494L126.522 178.806C124.842 176.932 123.563 174.734 122.763 172.348C121.962 169.962 121.658 167.438 121.868 164.93L138.155 167.871L122.272 162.355C122.833 159.881 123.899 157.549 125.402 155.505C126.905 153.461 128.813 151.749 131.007 150.475C133.201 149.202 135.635 148.394 138.155 148.103C140.675 147.812 143.229 148.044 145.655 148.784C148.082 149.524 150.33 150.756 152.26 152.403C154.189 154.051 155.758 156.079 156.868 158.36C157.979 160.641 158.607 163.126 158.714 165.661C158.822 168.196 158.405 170.726 157.491 173.092C158.582 173.848 159.589 174.718 160.497 175.686L149.952 186.09L161.956 177.459C163.755 179.948 164.905 182.847 165.301 185.892C165.698 188.937 165.328 192.033 164.227 194.9C167.549 197.197 170.027 200.52 171.28 204.359C172.533 208.199 172.493 212.344 171.164 216.159Z" fill="#376BFA"/>
<path opacity="0.1" d="M171.164 216.159H136.311C136.231 215.957 136.161 215.746 136.1 215.54C134.871 211.587 135.015 207.335 136.508 203.475C133.225 201.2 164.025 180.86 164.653 182.835C165.877 186.79 165.734 191.042 164.245 194.905C167.564 197.204 170.037 200.527 171.286 204.366C172.536 208.205 172.493 212.347 171.164 216.159Z" fill="#376BFA"/>
<path opacity="0.1" d="M328.988 191.152C326.871 194.709 323.615 197.446 319.747 198.92C319.912 200.238 319.939 201.57 319.827 202.893L305.041 202.007L319.48 205.164C318.525 209.575 315.991 213.486 312.354 216.159H292.231V216.68H271.746C271.788 216.501 271.83 216.328 271.877 216.159C272.63 213.329 274.043 210.719 275.999 208.541C277.956 206.363 280.402 204.68 283.135 203.63C282.612 199.523 283.483 195.359 285.61 191.807C287.737 188.254 290.995 185.519 294.862 184.041C294.752 183.196 294.7 182.345 294.707 181.494L304.253 185.246L294.815 179.702C295.085 177.203 295.861 174.786 297.095 172.597C298.33 170.408 299.998 168.494 301.997 166.971L310.694 181.043L304.178 165.564C307.728 163.589 311.83 162.841 315.848 163.435C319.866 164.03 323.575 165.933 326.402 168.85C329.228 171.767 331.013 175.535 331.48 179.57C331.946 183.605 331.069 187.681 328.983 191.166L328.988 191.152Z" fill="#376BFA"/>
<path opacity="0.1" d="M317.275 210.741C316.019 212.861 314.344 214.705 312.354 216.159H292.231V216.679H271.746C271.788 216.501 271.83 216.328 271.877 216.159C272.63 213.329 274.043 210.718 275.999 208.54C277.956 206.363 280.402 204.68 283.135 203.629C282.961 202.283 286.939 202.466 292.235 203.357C302.588 205.093 317.979 209.563 317.275 210.741Z" fill="#376BFA"/>
<path d="M230.062 161.492C230.062 161.492 232.572 175.175 226.943 179.636C221.314 184.097 231.7 210.868 248.952 207.748C266.205 204.629 273.195 182.164 273.195 182.164C273.195 182.164 255.942 178.599 262.335 160.455L230.062 161.492Z" fill="#EFB7B9"/>
<path opacity="0.1" d="M230.062 161.492C230.062 161.492 232.572 175.175 226.943 179.636C221.314 184.097 231.7 210.868 248.952 207.748C266.205 204.629 273.195 182.164 273.195 182.164C273.195 182.164 255.942 178.599 262.335 160.455L230.062 161.492Z" fill="black"/>
<path d="M245.308 171.53C261.077 171.53 273.861 158.747 273.861 142.977C273.861 127.208 261.077 114.424 245.308 114.424C229.538 114.424 216.754 127.208 216.754 142.977C216.754 158.747 229.538 171.53 245.308 171.53Z" fill="#EFB7B9"/>
<path d="M292.23 197.26V216.67H197.944V198.146C197.945 195.797 198.638 193.499 199.936 191.54C201.234 189.582 203.08 188.049 205.243 187.132L207.95 185.983C214.789 183.07 223.097 179.453 225.813 177.947C226.11 177.799 226.39 177.618 226.648 177.408C228.135 175.921 227.839 177.854 227.839 177.854C227.839 177.854 227.797 178.22 227.769 178.857C227.609 183.225 228.238 200.403 248.362 198.972C267.997 197.565 268.861 184.318 268.682 180.42C268.671 180.058 268.64 179.698 268.588 179.341C268.588 179.237 270.277 179.81 272.566 180.635C276.68 182.15 282.727 184.59 284.354 185.739C284.861 186.091 285.476 186.466 286.142 186.837C287.996 187.872 289.539 189.384 290.612 191.217C291.684 193.05 292.246 195.136 292.24 197.26H292.23Z" fill="#376BFA"/>
<path opacity="0.1" d="M272.562 180.635C270.901 188.337 265.685 202.766 246.87 203.151C226.835 203.545 225.681 183.618 225.803 177.966C226.103 177.817 226.385 177.635 226.643 177.422C228.13 175.935 227.834 177.867 227.834 177.867C227.834 177.867 225.306 200.623 248.357 198.976C271.408 197.33 268.584 179.345 268.584 179.345C268.584 179.237 270.273 179.791 272.562 180.635Z" fill="black"/>
<path d="M211.51 144.389C213.387 143.779 215.624 144.811 216.67 146.265C217.716 147.719 217.862 149.478 217.988 151.162C219.231 151.425 219.93 150.018 220.043 148.962C220.512 144.642 220.535 140.242 221.985 136.077C223.434 131.911 226.601 127.877 231.47 126.273C233.126 125.698 234.895 125.529 236.63 125.78C237.657 125.954 238.628 126.31 239.655 126.479C243.206 127.066 247.076 125.382 250.412 126.554C252.499 127.291 253.845 128.994 254.802 130.701C255.229 131.618 255.806 132.457 256.51 133.182C257.917 134.449 260.15 134.782 262.176 135.181C264.203 135.579 266.426 136.264 267.294 137.831C268.077 139.238 267.5 140.88 267.238 142.419C266.836 144.843 267.244 147.332 268.396 149.502C268.771 150.215 269.531 151.022 270.427 150.792C270.835 150.654 271.18 150.375 271.398 150.004C273.744 146.72 273.669 142.461 276.591 139.529C277.572 138.549 278.833 137.78 279.786 136.78C280.506 136.053 281.035 135.157 281.324 134.175C281.613 133.192 281.653 132.153 281.441 131.151C280.916 128.895 279.096 127.014 277.656 125.053C275.763 122.541 274.384 119.679 273.598 116.633C273.46 116.28 273.46 115.888 273.598 115.536C273.874 115.177 274.229 114.886 274.635 114.686C275.431 114.159 276.007 113.358 276.255 112.436C276.503 111.514 276.405 110.532 275.981 109.677C275.165 107.974 273.331 106.712 271.319 105.952C269.306 105.192 267.097 104.869 264.911 104.545C263.476 104.756 261.792 103.935 261.346 102.786C261.149 102.274 261.149 101.721 260.947 101.21C260.558 100.229 259.437 99.535 258.231 99.2958C257.005 99.0949 255.749 99.1832 254.563 99.5538C253.212 99.9338 251.645 100.492 250.468 99.8446C249.849 99.4928 249.501 98.8549 248.835 98.5687C247.484 97.9918 246.058 99.1551 245.083 100.117C244.136 101.118 242.977 101.896 241.691 102.392C240.336 102.861 238.666 102.861 237.498 102.115C236.559 101.519 236.09 100.562 235.344 99.8024C234.12 98.55 232.183 97.8698 230.25 97.715C228.312 97.6131 226.37 97.8254 224.499 98.3436C220.928 99.2087 217.516 100.634 214.39 102.565C212.828 103.546 211.332 104.69 210.516 106.168C209.936 107.32 209.637 108.593 209.643 109.883C209.498 113.922 210.839 118.181 214.334 121.01C212.205 121.901 211.482 124.082 210.985 126.02C210.187 129.106 209.385 132.249 209.686 135.401C209.836 137.029 210.281 138.657 210.042 140.275C209.929 141.058 209.657 141.828 209.723 142.62C209.81 143.06 210.027 143.464 210.345 143.779C210.664 144.094 211.07 144.306 211.51 144.389Z" fill="#454B69"/>
<g opacity="0.1">
<path opacity="0.1" d="M281.029 129.932C280.72 130.6 280.303 131.214 279.795 131.747C278.857 132.746 277.581 133.515 276.6 134.501C273.678 137.428 273.739 141.701 271.408 144.975C271.189 145.345 270.844 145.623 270.437 145.759C269.541 145.988 268.781 145.182 268.406 144.469C267.95 143.601 267.608 142.679 267.388 141.724C267.338 141.962 267.291 142.201 267.247 142.442C266.846 144.866 267.253 147.355 268.406 149.525C268.781 150.238 269.541 151.045 270.437 150.815C270.845 150.678 271.189 150.398 271.408 150.027C273.753 146.744 273.678 142.484 276.6 139.553C277.581 138.572 278.843 137.803 279.795 136.804C280.516 136.076 281.044 135.181 281.333 134.198C281.622 133.216 281.663 132.177 281.451 131.175C281.351 130.748 281.209 130.331 281.029 129.932Z" fill="black"/>
<path opacity="0.1" d="M274.654 109.677C274.247 109.873 273.892 110.162 273.617 110.521C273.479 110.874 273.479 111.266 273.617 111.619C273.888 112.682 274.234 113.724 274.654 114.738C275.459 114.206 276.04 113.395 276.285 112.461C276.53 111.527 276.422 110.536 275.981 109.677C275.849 109.397 275.692 109.13 275.512 108.879C275.268 109.187 274.978 109.455 274.654 109.677Z" fill="black"/>
<path opacity="0.1" d="M214.329 116C211.91 114 210.315 111.177 209.85 108.073C209.728 108.691 209.659 109.319 209.643 109.949C209.493 112.93 210.28 115.882 211.895 118.392C212.386 117.324 213.252 116.472 214.329 116Z" fill="black"/>
<path opacity="0.1" d="M267.247 137.385C267.51 135.847 268.087 134.21 267.303 132.798C266.436 131.231 264.217 130.542 262.186 130.147C260.154 129.753 257.936 129.416 256.519 128.149C255.815 127.423 255.238 126.584 254.812 125.668C253.873 123.96 252.508 122.257 250.421 121.521C247.086 120.348 243.216 122.032 239.665 121.446C238.638 121.277 237.667 120.921 236.639 120.747C234.907 120.489 233.137 120.65 231.479 121.216C226.61 122.82 223.444 126.845 221.994 131.02C220.545 135.195 220.512 139.585 220.052 143.906C219.94 144.961 219.241 146.368 217.998 146.106C217.871 144.422 217.716 142.663 216.68 141.208C215.643 139.754 213.429 138.718 211.52 139.332C210.942 139.202 210.429 138.869 210.075 138.394C210.14 139.018 210.131 139.648 210.047 140.27C209.934 141.054 209.662 141.823 209.728 142.616C209.814 143.056 210.029 143.46 210.347 143.776C210.665 144.092 211.07 144.305 211.51 144.389C213.387 143.779 215.624 144.811 216.67 146.265C217.716 147.719 217.862 149.478 217.988 151.162C219.232 151.425 219.93 150.018 220.043 148.962C220.512 144.642 220.536 140.242 221.985 136.077C223.435 131.911 226.601 127.877 231.47 126.273C233.126 125.698 234.895 125.529 236.63 125.78C237.657 125.954 238.628 126.31 239.655 126.479C243.206 127.066 247.076 125.382 250.412 126.554C252.499 127.291 253.845 128.994 254.802 130.701C255.229 131.618 255.806 132.456 256.51 133.182C257.917 134.449 260.15 134.782 262.176 135.181C264.203 135.579 266.262 136.217 267.191 137.672C267.214 137.592 267.228 137.489 267.247 137.385Z" fill="black"/>
<path opacity="0.1" d="M210.056 135.256C210.166 133.982 210.09 132.699 209.831 131.447C209.63 132.768 209.586 134.108 209.699 135.439C209.728 135.781 209.775 136.119 209.821 136.461C209.878 136.058 209.981 135.659 210.056 135.256Z" fill="black"/>
</g>
<path d="M426.271 187.02H384.053V216.314H426.271V187.02Z" fill="white"/>
<path opacity="0.1" d="M422.509 209.123C421.907 210.136 420.979 210.914 419.878 211.332C419.925 211.707 419.933 212.086 419.901 212.463L415.679 212.209L419.789 213.11C419.514 214.363 418.794 215.473 417.762 216.234H412.049V216.384H406.223C406.223 216.333 406.223 216.286 406.26 216.234C406.385 215.757 406.578 215.301 406.832 214.878C407.434 213.867 408.36 213.089 409.459 212.669C409.309 211.501 409.557 210.316 410.162 209.305C410.767 208.294 411.694 207.516 412.795 207.096C412.762 206.857 412.748 206.615 412.752 206.374L415.468 207.443L412.78 205.867C412.856 205.155 413.077 204.466 413.43 203.842C413.783 203.218 414.259 202.674 414.83 202.241L417.302 206.247L415.45 201.838C416.459 201.288 417.621 201.085 418.758 201.259C419.894 201.433 420.942 201.975 421.74 202.802C422.539 203.629 423.044 204.695 423.179 205.837C423.314 206.978 423.07 208.133 422.486 209.123H422.509Z" fill="#376BFA"/>
<path opacity="0.1" d="M419.174 214.709C418.815 215.313 418.336 215.836 417.767 216.248H412.049V216.398H406.223C406.223 216.347 406.223 216.3 406.26 216.248C406.385 215.771 406.578 215.315 406.832 214.892C407.434 213.881 408.36 213.103 409.459 212.683C409.412 212.303 410.543 212.355 412.049 212.608C414.995 213.105 419.376 214.376 419.174 214.709Z" fill="#376BFA"/>
<path opacity="0.1" d="M385.658 209.123C386.26 210.136 387.188 210.914 388.29 211.332C388.242 211.707 388.234 212.086 388.266 212.463L392.488 212.209L388.379 213.11C388.653 214.363 389.373 215.473 390.405 216.234H396.133V216.384H401.964C401.964 216.333 401.935 216.286 401.926 216.234C401.797 215.759 401.604 215.303 401.354 214.878C400.749 213.868 399.822 213.09 398.722 212.669C398.872 211.501 398.625 210.316 398.02 209.305C397.415 208.294 396.488 207.516 395.387 207.096C395.419 206.857 395.435 206.616 395.434 206.374L392.718 207.443L395.401 205.867C395.325 205.155 395.104 204.466 394.752 203.842C394.399 203.218 393.922 202.674 393.351 202.241L390.879 206.247L392.732 201.838C391.722 201.288 390.56 201.085 389.424 201.259C388.288 201.433 387.24 201.975 386.441 202.802C385.643 203.629 385.137 204.695 385.002 205.837C384.868 206.978 385.111 208.133 385.696 209.123H385.658Z" fill="#376BFA"/>
<path opacity="0.1" d="M388.993 214.709C389.352 215.313 389.831 215.836 390.4 216.248H396.128V216.398H401.958C401.958 216.347 401.93 216.3 401.921 216.248C401.792 215.773 401.599 215.317 401.349 214.892C400.744 213.882 399.817 213.104 398.717 212.683C398.764 212.303 397.633 212.355 396.128 212.608C393.173 213.105 388.777 214.376 388.993 214.709Z" fill="#376BFA"/>
<path d="M409.333 193.474H399.899V203.982H409.333V193.474Z" fill="#464353"/>
<path opacity="0.1" d="M409.333 193.474H399.899V203.982H409.333V193.474Z" fill="black"/>
<path d="M395.879 213.598L395.687 216.328H398.38L398.548 212.72L395.879 213.598Z" fill="#A1616A"/>
<path d="M410.064 213.598L409.656 216.328H412.124L412.278 212.72L410.064 213.598Z" fill="#A1616A"/>
<path d="M402.254 198.732C402.254 198.732 402.16 200.097 401.832 200.454C401.504 200.81 404.764 203.967 407.33 200.848C407.33 200.848 406.227 199.91 406.485 198.859C406.743 197.808 402.254 198.732 402.254 198.732Z" fill="#A1616A"/>
<path opacity="0.1" d="M402.254 198.732C402.254 198.732 402.16 200.097 401.832 200.454C401.504 200.81 404.764 203.967 407.33 200.848C407.33 200.848 406.227 199.91 406.485 198.859C406.743 197.808 402.254 198.732 402.254 198.732Z" fill="black"/>
<path d="M404.614 199.952C407.22 199.952 409.333 197.839 409.333 195.233C409.333 192.627 407.22 190.514 404.614 190.514C402.007 190.514 399.895 192.627 399.895 195.233C399.895 197.839 402.007 199.952 404.614 199.952Z" fill="#A1616A"/>
<path d="M404.369 201.659C404.369 201.659 402.39 201.627 402.094 199.821C401.702 200.16 401.288 200.473 400.856 200.759C400.664 200.824 398.773 201.894 398.417 201.96C398.068 202.03 397.744 202.192 397.478 202.429C397.012 202.795 396.631 203.258 396.361 203.786C396.092 204.314 395.94 204.895 395.916 205.487C395.851 207.603 395.593 211.735 395.593 211.735L395.691 213.232V214.207C395.691 214.207 397.446 214.676 398.506 213.738C398.506 213.738 398.506 213.382 398.703 213.269C398.9 213.157 398.928 212.683 398.895 212.486C398.878 212.194 398.878 211.901 398.895 211.609C398.929 211.768 399.023 211.907 399.158 211.998C399.236 212.263 399.258 212.541 399.223 212.814C399.125 213.007 399.026 213.462 399.125 213.56C399.175 213.647 399.195 213.748 399.183 213.848C399.171 213.947 399.128 214.04 399.059 214.114C398.88 214.364 398.738 214.639 398.637 214.93C398.637 214.93 398.539 215.511 398.44 215.577C398.329 215.815 398.253 216.068 398.215 216.328H409.942C409.735 215.734 409.578 215.123 409.473 214.503C409.506 214.212 409.182 213.007 409.407 212.683C409.739 212.254 409.922 211.729 409.928 211.186L410.059 212.453L409.703 215.268C409.703 215.268 411.879 215.952 412.109 215.526C412.352 214.783 412.538 214.022 412.663 213.25C412.663 213.25 413.183 210.905 413.315 210.581C413.446 210.258 413.737 203.751 411.978 202.809C410.219 201.866 406.902 200.243 406.818 200.322C406.63 200.796 406.283 201.189 405.835 201.434C405.388 201.678 404.869 201.758 404.369 201.659Z" fill="#376BFA"/>
<path opacity="0.1" d="M398.718 208.021C398.382 208.5 398.239 209.087 398.314 209.667C398.393 210.241 398.581 210.795 398.868 211.299" stroke="black" stroke-width="1.35441" stroke-miterlimit="10"/>
<path opacity="0.1" d="M410.112 208.466C410.196 208.704 410.262 208.949 410.309 209.198C410.393 209.508 410.409 209.834 410.355 210.151C410.302 210.468 410.18 210.77 409.999 211.036" stroke="black" stroke-width="1.35441" stroke-miterlimit="10"/>
<path d="M402.503 192.006C402.872 191.907 403.264 191.947 403.605 192.118C403.941 192.292 404.293 192.432 404.656 192.536C404.9 192.588 405.125 192.588 405.397 192.625C405.85 192.707 406.268 192.923 406.598 193.245C406.927 193.567 407.152 193.98 407.245 194.431C407.456 195.585 406.776 196.72 406.776 197.898C406.779 198.571 407.016 199.223 407.447 199.741C407.809 200.071 408.124 200.448 408.385 200.862C408.521 201.162 408.549 201.505 408.681 201.8C408.968 202.332 409.443 202.737 410.013 202.936C410.578 203.125 411.123 203.371 411.641 203.667C412.579 204.291 413.132 205.487 414.221 205.745C414.275 205.769 414.333 205.781 414.392 205.781C414.451 205.781 414.509 205.769 414.563 205.745C414.612 205.706 414.652 205.656 414.68 205.599C414.708 205.542 414.722 205.48 414.722 205.417C414.75 205.187 414.724 204.955 414.649 204.736C414.573 204.518 414.449 204.319 414.286 204.155C414.019 203.888 413.629 203.686 413.545 203.325C413.461 202.964 413.686 202.654 413.808 202.326C414.197 201.261 413.55 200.102 412.813 199.239C412.077 198.376 411.195 197.522 411.017 196.425C410.975 196.054 410.96 195.681 410.974 195.308C410.961 194.54 410.828 193.779 410.58 193.052C410.461 192.659 410.271 192.292 410.018 191.968C409.783 191.687 409.483 191.471 409.239 191.199C408.915 190.751 408.623 190.281 408.366 189.792C407.994 189.212 407.484 188.732 406.883 188.394C406.282 188.057 405.608 187.871 404.919 187.854C403.6 187.854 402.353 188.436 401.236 189.135C400.826 189.359 400.47 189.672 400.195 190.05C399.726 190.796 399.867 191.781 399.594 192.625C399.322 193.469 398.68 194.093 398.455 194.919C398.385 195.161 398.374 195.417 398.422 195.665C398.505 195.926 398.617 196.178 398.755 196.415C399.004 197.019 399.145 197.662 399.172 198.315C399.243 199.103 399.275 199.952 398.863 200.623C398.542 201.03 398.144 201.368 397.69 201.617C398.15 201.991 398.737 202.171 399.327 202.119C400.218 202.157 401.25 202.119 401.804 201.416C402.135 200.911 402.269 200.301 402.179 199.704C402.135 199.051 402.003 198.407 401.785 197.79C401.48 196.922 401.011 196.101 400.875 195.191C400.822 194.863 400.836 194.527 400.916 194.205C400.997 193.882 401.143 193.579 401.344 193.315C401.513 193.104 401.813 192.996 401.954 192.771C402.132 192.47 402.081 192.156 402.503 192.006Z" fill="#464353"/>
<g opacity="0.1">
<path opacity="0.1" d="M398.755 196.354C399.004 196.958 399.145 197.601 399.172 198.254C399.172 198.46 399.205 198.672 399.21 198.883C399.259 198.424 399.259 197.962 399.21 197.504C399.181 196.859 399.04 196.224 398.792 195.627C398.658 195.39 398.546 195.14 398.459 194.881C398.39 195.122 398.379 195.376 398.427 195.622C398.51 195.877 398.62 196.123 398.755 196.354Z" fill="black"/>
<path opacity="0.1" d="M401.846 200.679C401.292 201.378 400.26 201.42 399.369 201.387C398.992 201.389 398.617 201.332 398.257 201.219C398.079 201.364 397.887 201.5 397.699 201.631C398.159 202.005 398.746 202.185 399.336 202.133C400.228 202.171 401.26 202.133 401.813 201.43C402.13 200.96 402.267 200.392 402.198 199.83C402.156 200.139 402.035 200.431 401.846 200.679Z" fill="black"/>
<path opacity="0.1" d="M413.578 202.556C413.591 202.609 413.609 202.661 413.634 202.71C413.69 202.579 413.756 202.443 413.807 202.307C413.92 201.998 413.952 201.665 413.901 201.341C413.885 201.415 413.865 201.489 413.84 201.561C413.718 201.889 413.498 202.218 413.578 202.556Z" fill="black"/>
<path opacity="0.1" d="M407.273 194.656C407.327 194.335 407.327 194.007 407.273 193.685C407.181 193.234 406.956 192.821 406.626 192.499C406.297 192.177 405.878 191.961 405.425 191.879C405.176 191.837 404.928 191.837 404.684 191.79C404.321 191.684 403.97 191.544 403.633 191.373C403.292 191.2 402.9 191.158 402.531 191.255C402.109 191.405 402.16 191.724 401.973 192.034C401.837 192.259 401.532 192.372 401.363 192.578C400.991 193.074 400.823 193.693 400.894 194.309C400.952 193.95 401.103 193.613 401.33 193.329C401.499 193.118 401.799 193.01 401.94 192.785C402.127 192.47 402.076 192.156 402.498 192.006C402.867 191.907 403.259 191.947 403.6 192.118C403.936 192.292 404.288 192.432 404.651 192.536C404.895 192.588 405.12 192.588 405.392 192.625C405.845 192.707 406.263 192.923 406.593 193.245C406.922 193.567 407.148 193.98 407.24 194.431C407.256 194.505 407.267 194.581 407.273 194.656Z" fill="black"/>
<path opacity="0.1" d="M414.577 204.981C414.467 205.024 414.345 205.024 414.234 204.981C413.146 204.723 412.583 203.527 411.654 202.903C411.135 202.61 410.59 202.365 410.027 202.171C409.457 201.974 408.982 201.571 408.695 201.04C408.563 200.736 408.535 200.398 408.399 200.102C408.138 199.688 407.822 199.311 407.461 198.981C407.07 198.516 406.834 197.94 406.785 197.335C406.757 197.516 406.743 197.7 406.743 197.884C406.752 198.566 407.001 199.224 407.447 199.741C407.809 200.071 408.124 200.448 408.385 200.862C408.521 201.162 408.549 201.505 408.68 201.8C408.967 202.332 409.443 202.737 410.013 202.936C410.578 203.125 411.123 203.371 411.64 203.667C412.579 204.291 413.132 205.487 414.22 205.745C414.274 205.769 414.333 205.781 414.392 205.781C414.45 205.781 414.509 205.769 414.563 205.745C414.612 205.706 414.652 205.656 414.679 205.599C414.707 205.542 414.722 205.48 414.722 205.417C414.743 205.24 414.734 205.061 414.694 204.887C414.664 204.928 414.624 204.96 414.577 204.981Z" fill="black"/>
</g>
<path opacity="0.1" d="M394.392 189.172H388.36V197.789H394.392V189.172Z" fill="#376BFA"/>
<path opacity="0.1" d="M393.529 190.406H389.223V196.561H393.529V190.406Z" fill="#376BFA"/>
<path opacity="0.1" d="M424.114 190.467H414.207V195.636H424.114V190.467Z" fill="#376BFA"/>
<path opacity="0.1" d="M422.823 191.143H415.501V194.966H422.823V191.143Z" fill="#376BFA"/>
</g>
<defs>
<clipPath id="clip0">
<rect width="542.074" height="327.238" fill="white"/>
</clipPath>
</defs>
</svg>
