<svg width="22" height="22" viewBox="0 0 22 22" fill="none" xmlns="http://www.w3.org/2000/svg">
<path d="M8.47911 7.33339H1.60411C0.719559 7.33339 0 6.61383 0 5.72911V1.60411C0 0.719559 0.719559 0 1.60411 0H8.47911C9.36383 0 10.0834 0.719559 10.0834 1.60411V5.72911C10.0834 6.61383 9.36383 7.33339 8.47911 7.33339ZM1.60411 1.375C1.47772 1.375 1.375 1.47772 1.375 1.60411V5.72911C1.375 5.85567 1.47772 5.95839 1.60411 5.95839H8.47911C8.60567 5.95839 8.70839 5.85567 8.70839 5.72911V1.60411C8.70839 1.47772 8.60567 1.375 8.47911 1.375H1.60411Z" fill="#B0BEC7"/>
<path d="M8.47911 22H1.60411C0.719559 22 0 21.2804 0 20.3959V10.7709C0 9.88617 0.719559 9.16661 1.60411 9.16661H8.47911C9.36383 9.16661 10.0834 9.88617 10.0834 10.7709V20.3959C10.0834 21.2804 9.36383 22 8.47911 22ZM1.60411 10.5416C1.47772 10.5416 1.375 10.6443 1.375 10.7709V20.3959C1.375 20.5223 1.47772 20.625 1.60411 20.625H8.47911C8.60567 20.625 8.70839 20.5223 8.70839 20.3959V10.7709C8.70839 10.6443 8.60567 10.5416 8.47911 10.5416H1.60411Z" fill="#B0BEC7"/>
<path d="M20.3958 22H13.5208C12.6361 22 11.9165 21.2804 11.9165 20.3959V16.2709C11.9165 15.3862 12.6361 14.6666 13.5208 14.6666H20.3958C21.2803 14.6666 21.9999 15.3862 21.9999 16.2709V20.3959C21.9999 21.2804 21.2803 22 20.3958 22ZM13.5208 16.0416C13.3942 16.0416 13.2915 16.1443 13.2915 16.2709V20.3959C13.2915 20.5223 13.3942 20.625 13.5208 20.625H20.3958C20.5222 20.625 20.6249 20.5223 20.6249 20.3959V16.2709C20.6249 16.1443 20.5222 16.0416 20.3958 16.0416H13.5208Z" fill="#B0BEC7"/>
<path d="M20.3958 12.8334H13.5208C12.6361 12.8334 11.9165 12.1138 11.9165 11.2291V1.60411C11.9165 0.719559 12.6361 0 13.5208 0H20.3958C21.2803 0 21.9999 0.719559 21.9999 1.60411V11.2291C21.9999 12.1138 21.2803 12.8334 20.3958 12.8334ZM13.5208 1.375C13.3942 1.375 13.2915 1.47772 13.2915 1.60411V11.2291C13.2915 11.3557 13.3942 11.4584 13.5208 11.4584H20.3958C20.5222 11.4584 20.6249 11.3557 20.6249 11.2291V1.60411C20.6249 1.47772 20.5222 1.375 20.3958 1.375H13.5208Z" fill="#B0BEC7"/>
</svg>
