<svg width="42" height="42" viewBox="0 0 42 42" fill="none" xmlns="http://www.w3.org/2000/svg">
<circle cx="21" cy="21" r="21" fill="#34D7A0" fill-opacity="0.12"/>
<path d="M26 30.9999C25.945 30.9999 25.89 30.989 25.8383 30.9665C25.64 30.884 21 28.8782 21 24.7799V21.2974C21 21.119 21.1142 20.9599 21.2833 20.9024L25.8667 19.3549C25.9533 19.3257 26.0475 19.3257 26.1333 19.3549L30.7167 20.9024C30.8858 20.959 31 21.1182 31 21.2974V24.7799C31 28.8782 26.36 30.8841 26.1617 30.9674C26.11 30.989 26.055 30.9999 26 30.9999ZM21.8333 21.5965V24.7799C21.8333 27.934 25.2125 29.7449 26 30.1249C26.7867 29.7441 30.1667 27.9265 30.1667 24.7799V21.5965L26 20.1899L21.8333 21.5965Z" fill="#34D7A0" stroke="#34D7A0" stroke-width="0.2"/>
<path d="M25.5833 26.8332C25.5758 26.8332 25.5675 26.8332 25.5608 26.8324C25.4417 26.8257 25.3325 26.769 25.2583 26.6765L23.5917 24.5932C23.4483 24.4132 23.4767 24.1515 23.6567 24.0074C23.8375 23.8649 24.0983 23.8932 24.2425 24.0724L25.6175 25.7924L28.205 23.2049C28.3675 23.0424 28.6317 23.0424 28.7942 23.2049C28.9567 23.3674 28.9567 23.6315 28.7942 23.794L25.8775 26.7107C25.8 26.7899 25.6933 26.8332 25.5833 26.8332Z" fill="#34D7A0" stroke="#34D7A0" stroke-width="0.2"/>
<path d="M21.4167 19.0749C21.1867 19.0749 21 18.8883 21 18.6583V13.4999C21 12.5808 21.7475 11.8333 22.6667 11.8333C23.5858 11.8333 24.3333 12.5808 24.3333 13.4999V17.8166C24.3333 18.0466 24.1467 18.2333 23.9167 18.2333C23.6867 18.2333 23.5 18.0474 23.5 17.8166V13.4999C23.5 13.0408 23.1267 12.6666 22.6667 12.6666C22.2067 12.6666 21.8333 13.0408 21.8333 13.4999V18.6583C21.8333 18.8883 21.6467 19.0749 21.4167 19.0749Z" fill="#34D7A0" stroke="#34D7A0" stroke-width="0.2"/>
<path d="M21.4167 19.075C21.1867 19.075 21 18.8883 21 18.6583V12.6667C21 12.2075 20.6267 11.8333 20.1667 11.8333C19.7067 11.8333 19.3333 12.2075 19.3333 12.6667V13.5C19.3333 13.73 19.1467 13.9167 18.9167 13.9167C18.6867 13.9167 18.5 13.73 18.5 13.5V12.6667C18.5 11.7475 19.2475 11 20.1667 11C21.0858 11 21.8333 11.7475 21.8333 12.6667V18.6583C21.8333 18.8883 21.6467 19.075 21.4167 19.075Z" fill="#34D7A0" stroke="#34D7A0" stroke-width="0.2"/>
<path d="M21.0083 30.9999H18.9167C16.5083 30.9808 14.7967 29.3041 13.5242 25.7224C12.8025 23.6916 12.1083 23.0474 11.6492 22.6208C11.3158 22.3108 11 22.0174 11 21.4166C11 21.2083 11.1 20.1666 13.0833 20.1666C14.3467 20.1666 15.3567 21.0208 16 21.7724V13.4999C16 12.5808 16.7475 11.8333 17.6667 11.8333C18.5858 11.8333 19.3333 12.5808 19.3333 13.4999V20.5833C19.3333 20.8133 19.1467 20.9999 18.9167 20.9999C18.6867 20.9999 18.5 20.8133 18.5 20.5833V13.4999C18.5 13.0408 18.1267 12.6666 17.6667 12.6666C17.2067 12.6666 16.8333 13.0408 16.8333 13.4999V23.0833C16.8333 23.2741 16.7042 23.4399 16.5192 23.4866C16.335 23.5333 16.1417 23.4491 16.05 23.2816C16.0383 23.2591 14.7917 20.9999 13.0833 20.9999C12.1383 20.9999 11.8333 21.2808 11.8333 21.4166C11.8333 21.6458 11.9067 21.7224 12.2167 22.0099C12.7042 22.4624 13.5192 23.2199 14.3092 25.4433C15.4483 28.6499 16.9133 30.1508 18.92 30.1666H21C21.1858 30.1666 21.3625 30.1583 21.5383 30.1499C21.7658 30.1291 21.9633 30.3174 21.9733 30.5466C21.985 30.7766 21.8067 30.9716 21.5767 30.9824C21.3883 30.9916 21.1983 30.9999 21.0083 30.9999Z" fill="#34D7A0" stroke="#34D7A0" stroke-width="0.2"/>
<path d="M23.9167 18.2333C23.6867 18.2333 23.5 18.0466 23.5 17.8166V15.9999C23.5 15.0808 24.2475 14.3333 25.1667 14.3333C26.0858 14.3333 26.8333 15.0808 26.8333 15.9999V17.2833C26.8333 17.5133 26.6467 17.6999 26.4167 17.6999C26.1867 17.6999 26 17.5133 26 17.2833V15.9999C26 15.5408 25.6267 15.1666 25.1667 15.1666C24.7067 15.1666 24.3333 15.5408 24.3333 15.9999V17.8166C24.3333 18.0474 24.1467 18.2333 23.9167 18.2333Z" fill="#34D7A0" stroke="#34D7A0" stroke-width="0.2"/>
</svg>
