<svg width="37" height="37" viewBox="0 0 37 37" fill="none" xmlns="http://www.w3.org/2000/svg">
<rect x="8.07056" y="8.07053" width="4.03525" height="12.1057" fill="#376BFA"/>
<rect x="4.03516" width="4.03525" height="4.03525" fill="#376BFA"/>
<rect width="4.03525" height="4.03525" transform="matrix(1 0 0 -1 4.03516 36.3173)" fill="#376BFA"/>
<rect width="4.03525" height="4.03525" transform="matrix(-1 0 0 1 32.282 0)" fill="#376BFA"/>
<rect x="32.282" y="36.3173" width="4.03525" height="4.03525" transform="rotate(-180 32.282 36.3173)" fill="#376BFA"/>
<rect width="4.03525" height="4.03525" fill="#376BFA"/>
<rect width="4.03525" height="4.03525" transform="matrix(1 0 0 -1 0 36.3173)" fill="#376BFA"/>
<rect width="4.03525" height="4.03525" transform="matrix(-1 0 0 1 36.3171 0)" fill="#376BFA"/>
<rect x="36.3171" y="36.3173" width="4.03525" height="4.03525" transform="rotate(-180 36.3171 36.3173)" fill="#376BFA"/>
<rect y="4.03526" width="4.03525" height="4.03525" fill="#376BFA"/>
<rect width="4.03525" height="4.03525" transform="matrix(1 0 0 -1 0 32.282)" fill="#376BFA"/>
<rect width="4.03525" height="4.03525" transform="matrix(-1 0 0 1 36.3171 4.03526)" fill="#376BFA"/>
<rect x="36.3171" y="32.282" width="4.03525" height="4.03525" transform="rotate(-180 36.3171 32.282)" fill="#376BFA"/>
<rect x="8.07056" y="16.141" width="4.03525" height="4.03525" fill="#376BFA"/>
<rect x="8.07056" y="24.2115" width="4.03525" height="4.03525" fill="#376BFA"/>
<rect x="10.8953" y="16.141" width="17.3516" height="4.03525" fill="#376BFA"/>
<rect x="24.2114" y="8.07053" width="4.03525" height="4.03525" fill="#376BFA"/>
<rect x="24.2114" y="19.3692" width="4.03525" height="8.87755" fill="#376BFA"/>
</svg>
