<svg width="42" height="42" viewBox="0 0 42 42" fill="none" xmlns="http://www.w3.org/2000/svg">
<circle cx="21" cy="21" r="21" fill="#585858" fill-opacity="0.12"/>
<path d="M32.9576 23.0538L31.3838 17.9474C31.3595 15.3313 30.3345 12.8605 28.4935 10.9953C26.6281 9.10583 24.141 8.04484 21.4887 8.00123C19.6039 7.97217 17.758 8.45664 16.155 9.41589C16.019 9.49341 15.9267 9.62422 15.8878 9.7744C15.8489 9.92459 15.8732 10.0796 15.9509 10.2153C16.0287 10.3509 16.1598 10.443 16.3104 10.4817C16.461 10.5205 16.6164 10.4963 16.7525 10.4188C18.1709 9.57577 19.7982 9.14459 21.4693 9.16881C26.2929 9.24633 30.2179 13.2238 30.2179 18.0395C30.2179 18.0976 30.2276 18.1558 30.2422 18.2091L31.8015 23.267H29.7564C29.4358 23.267 29.1735 23.5286 29.1735 23.8483V26.5226C29.1735 27.7435 28.1777 28.7366 26.9536 28.7366H23.2423C22.1153 28.7366 21.0515 28.2958 20.2548 27.5012C20.0265 27.2735 19.6573 27.2735 19.429 27.5012C19.2007 27.7289 19.2007 28.0971 19.429 28.3248C20.3811 29.2744 21.6344 29.8267 22.9703 29.8945L22.2902 32.2588C22.2465 32.4089 22.2659 32.564 22.3388 32.6996C22.4165 32.8353 22.5379 32.9322 22.6885 32.9758C22.742 32.9903 22.7954 33 22.8488 33C23.1063 33 23.3395 32.8256 23.4075 32.5785L24.175 29.8994H26.9439C28.8092 29.8994 30.3296 28.383 30.3296 26.5226V24.4297H31.9278C32.2679 24.4297 32.5836 24.2747 32.7828 23.9985C32.9965 23.7224 33.0548 23.3784 32.9576 23.0538Z" fill="#585858"/>
<path d="M12.4291 17.8794C12.4583 16.2225 12.9392 14.6189 13.8281 13.2382C14.003 12.9669 13.9204 12.6084 13.6533 12.434C13.3812 12.2596 13.0218 12.3419 12.8469 12.6084C11.8414 14.1732 11.2973 15.99 11.2633 17.8601C11.2293 19.7543 11.7248 21.8666 12.6186 23.6592C13.459 25.35 13.6873 27.2637 13.2501 29.0562L12.468 32.2828C12.4291 32.433 12.4583 32.588 12.536 32.7237C12.6186 32.8545 12.7449 32.9514 12.8955 32.9853C12.9392 32.995 12.9878 32.9998 13.0315 32.9998C13.3035 32.9998 13.5367 32.8157 13.5998 32.5541L14.3819 29.3275C14.8774 27.2734 14.6199 25.0739 13.6581 23.1408C12.8518 21.513 12.4 19.5945 12.4291 17.8794Z" fill="#585858"/>
<path d="M14.7317 10.6609C14.5762 10.6561 14.4305 10.7142 14.3139 10.8208C14.2022 10.9274 14.139 11.0727 14.1342 11.2278C14.1293 11.3828 14.1876 11.5281 14.2945 11.6444C14.4062 11.7607 14.5568 11.8237 14.7171 11.8237C14.8677 11.8237 15.0086 11.7655 15.1203 11.6638C15.232 11.5572 15.2952 11.4119 15.3 11.2568C15.3049 11.1018 15.2466 10.9565 15.1397 10.8402C15.0329 10.7288 14.8871 10.6609 14.7317 10.6609Z" fill="#585858"/>
<path d="M19.4727 15.6173C20.0605 15.6173 20.59 15.2976 20.8475 14.784C20.8766 14.7259 20.9155 14.6726 20.964 14.629C21.0806 14.5224 21.2263 14.4691 21.3867 14.4788C21.6538 14.4982 21.8821 14.7259 21.9016 14.9923C21.9161 15.1958 21.8238 15.3799 21.6587 15.4962C20.488 16.3004 19.7885 17.6133 19.7885 18.9989C19.7885 19.4156 19.9536 19.808 20.25 20.1035C20.5414 20.3894 20.93 20.5492 21.3429 20.5492H21.3672C22.1979 20.5396 22.8877 19.8371 22.8974 18.9844C22.9022 18.621 23.1014 18.2722 23.4269 18.0494C24.5053 17.3081 25.0931 16.0873 25.0056 14.7792C24.8793 12.9673 23.4172 11.509 21.6004 11.3879C20.5851 11.32 19.5796 11.6737 18.8412 12.3617C18.5303 12.6523 18.2729 12.9915 18.0786 13.3742C17.8357 13.8538 17.8551 14.4158 18.1369 14.8761C18.4332 15.3412 18.9287 15.6173 19.4727 15.6173ZM19.6427 13.2143C20.1479 12.7444 20.8329 12.5022 21.5275 12.5506C22.7662 12.6378 23.7621 13.631 23.8495 14.8664C23.9126 15.7578 23.5095 16.5911 22.7711 17.0998C22.1347 17.5358 21.751 18.2383 21.7413 18.9747C21.7364 19.2024 21.5664 19.3914 21.3575 19.3914C21.2506 19.3914 21.1535 19.3526 21.0806 19.2799C21.0078 19.2073 20.964 19.1104 20.964 19.0038C20.964 18.0009 21.4741 17.0465 22.329 16.4603C22.8342 16.1115 23.116 15.535 23.0723 14.9197C23.014 14.0815 22.3145 13.3839 21.4741 13.3258C21.4304 13.3209 21.3915 13.3209 21.3478 13.3209C20.9106 13.3209 20.4928 13.4856 20.1722 13.7812C20.0216 13.9217 19.9002 14.0815 19.8079 14.2608C19.7496 14.3819 19.6136 14.4546 19.4727 14.4546C19.2736 14.4546 19.1716 14.3238 19.1376 14.2656C19.1035 14.2123 19.0355 14.067 19.123 13.9023C19.2541 13.6407 19.4339 13.4081 19.6427 13.2143Z" fill="#585858"/>
<path d="M19.7983 22.8745C19.7983 23.7272 20.4978 24.4248 21.3527 24.4248C22.2077 24.4248 22.9072 23.7272 22.9072 22.8745C22.9072 22.0219 22.2077 21.3242 21.3527 21.3242C20.4929 21.3242 19.7983 22.0219 19.7983 22.8745ZM20.9641 22.8745C20.9641 22.6614 21.139 22.487 21.3527 22.487C21.5665 22.487 21.7413 22.6614 21.7413 22.8745C21.7413 23.0877 21.5665 23.2621 21.3527 23.2621C21.139 23.2621 20.9641 23.0877 20.9641 22.8745Z" fill="#585858"/>
</svg>
