<svg width="42" height="42" viewBox="0 0 42 42" fill="none" xmlns="http://www.w3.org/2000/svg">
<circle cx="21" cy="21" r="21" fill="#EB5757" fill-opacity="0.12"/>
<path d="M26.0427 21.0006C25.9189 21.0006 25.797 20.9502 25.7099 20.8567L23.6191 18.643C22.7455 17.7172 21.3037 17.5733 20.2642 18.3075C19.0607 19.1573 17.4428 19.1573 16.2393 18.3075C15.2007 17.5742 13.758 17.7181 12.8844 18.643L10.7936 20.8567C10.6652 20.9942 10.4645 21.0364 10.2912 20.9685C10.1162 20.8989 10.0016 20.7302 10.0016 20.5423C10.0016 19.0005 10.1684 17.4633 10.4975 15.9729C10.9155 14.0764 12.5718 12.7509 14.5243 12.7509H16.1449C18.233 12.7509 20.2551 11.8838 21.6951 10.3704C21.7052 10.3603 21.7143 10.3512 21.7244 10.342C22.0269 10.0771 22.4293 9.95884 22.8189 10.0157C23.2139 10.0725 23.5641 10.3017 23.7795 10.6426C24.797 12.2587 26.501 14.9627 26.501 20.5423C26.501 20.7302 26.3864 20.8989 26.2123 20.9685C26.1573 20.9896 26.1004 21.0006 26.0427 21.0006ZM21.7418 16.9253C22.6777 16.9253 23.6072 17.2965 24.2846 18.0142L25.5578 19.3617C25.3479 14.8518 23.9518 12.6372 23.004 11.1321C22.9307 11.0166 22.818 10.9415 22.6869 10.9222C22.5595 10.9048 22.4403 10.9396 22.3413 11.0203C20.7308 12.7032 18.474 13.6675 16.144 13.6675H14.5243C13.0045 13.6675 11.7175 14.6969 11.393 16.1699C11.163 17.2122 11.0154 18.2782 10.954 19.3525L12.2189 18.0133C13.4032 16.7575 15.3584 16.5623 16.7682 17.5577C17.6564 18.1847 18.8489 18.1847 19.7362 17.5577C20.3385 17.1333 21.0415 16.9253 21.7418 16.9253Z" fill="#EB5757" stroke="#EB5757" stroke-width="0.2"/>
<path d="M14.5847 22.8338C15.091 22.8338 15.5014 22.4234 15.5014 21.9171C15.5014 21.4109 15.091 21.0005 14.5847 21.0005C14.0785 21.0005 13.6681 21.4109 13.6681 21.9171C13.6681 22.4234 14.0785 22.8338 14.5847 22.8338Z" fill="#EB5757" stroke="#EB5757" stroke-width="0.2"/>
<path d="M21.9179 22.8338C22.4241 22.8338 22.8345 22.4234 22.8345 21.9171C22.8345 21.4109 22.4241 21.0005 21.9179 21.0005C21.4116 21.0005 21.0012 21.4109 21.0012 21.9171C21.0012 22.4234 21.4116 22.8338 21.9179 22.8338Z" fill="#EB5757" stroke="#EB5757" stroke-width="0.2"/>
<path d="M19.0029 29.2503H17.4997C15.4977 29.2503 13.6159 28.4703 12.1988 27.0541C10.7826 25.6379 10.0016 23.7551 10.0016 21.7523V20.5423C10.0016 20.2893 10.2069 20.084 10.4599 20.084C10.7129 20.084 10.9182 20.2893 10.9182 20.5423V21.7523C10.9182 23.5094 11.6029 25.1631 12.8468 26.406C14.0907 27.649 15.7434 28.3337 17.4997 28.3337H19.0029C20.7592 28.3337 22.4119 27.649 23.6558 26.4051C24.0802 25.9807 24.4395 25.5031 24.7236 24.9861C24.8465 24.7634 25.1242 24.6855 25.347 24.8056C25.5688 24.9275 25.6494 25.2061 25.5275 25.428C25.2021 26.0201 24.7896 26.5664 24.3038 27.0522C22.8876 28.4703 21.0049 29.2503 19.0029 29.2503Z" fill="#EB5757" stroke="#EB5757" stroke-width="0.2"/>
<path d="M29.2508 32.0001C27.7347 32.0001 26.5009 30.7663 26.5009 29.2502C26.5009 28.6333 26.7007 28.0494 27.0784 27.5645C27.2333 27.3656 27.4175 27.0484 27.4175 26.6671V22.8338C27.4175 21.8227 28.2398 21.0005 29.2508 21.0005C30.2619 21.0005 31.0841 21.8227 31.0841 22.8338V26.6662C31.0841 27.0484 31.2683 27.3647 31.4232 27.5636C31.8009 28.0494 32.0007 28.6333 32.0007 29.2502C32.0007 30.7663 30.7669 32.0001 29.2508 32.0001ZM29.2508 21.9171C28.7448 21.9171 28.3342 22.3287 28.3342 22.8338V26.6662C28.3342 27.1749 28.1499 27.68 27.8016 28.1273C27.5505 28.45 27.4175 28.8386 27.4175 29.2502C27.4175 30.2612 28.2398 31.0835 29.2508 31.0835C30.2619 31.0835 31.0841 30.2612 31.0841 29.2502C31.0841 28.8386 30.9512 28.45 30.7 28.1264C30.3517 27.68 30.1675 27.1749 30.1675 26.6662V22.8338C30.1675 22.3287 29.7568 21.9171 29.2508 21.9171Z" fill="#EB5757" stroke="#EB5757" stroke-width="0.2"/>
</svg>
