<svg width="42" height="42" viewBox="0 0 42 42" fill="none" xmlns="http://www.w3.org/2000/svg">
<circle cx="21" cy="21" r="21" fill="#52BEEA" fill-opacity="0.12"/>
<path d="M32.366 22.1092L29.3355 20.7623C29.1214 20.6672 28.9832 20.4543 28.9832 20.2201V19.3879C30.0012 18.5768 30.6555 17.3277 30.6555 15.928V14.7565C30.9909 14.5712 31.2129 14.2131 31.2129 13.812V13.6983C31.2129 11.2592 29.2286 9.2749 26.7895 9.2749H25.6747C23.2357 9.2749 21.2514 11.2592 21.2514 13.6983V14.7299C21.2514 15.0824 21.4031 15.4018 21.6675 15.6061C21.7124 15.6408 21.7596 15.6712 21.8088 15.6976V15.9279C21.8088 17.3276 22.463 18.5767 23.481 19.3878V20.2201C23.481 20.4543 23.3427 20.6671 23.1286 20.7622L20.0981 22.1091C19.1056 22.5502 18.4643 23.5371 18.4643 24.6231V31.5353C18.4643 31.8233 18.6978 32.0568 18.9858 32.0568C19.2738 32.0568 19.5073 31.8233 19.5073 31.5353V24.6232C19.5073 24.5628 19.5116 24.503 19.5179 24.4438L20.9143 25.8402C21.1316 26.0576 21.2514 26.3465 21.2514 26.6539V31.5353C21.2514 31.8234 21.4849 32.0569 21.7729 32.0569C22.0609 32.0569 22.2944 31.8234 22.2944 31.5353V26.6539C22.2944 26.068 22.0663 25.5171 21.6519 25.1027L19.9871 23.4379C20.1371 23.2823 20.3171 23.1533 20.5218 23.0623L23.5012 21.7381L25.7107 23.9476V31.5353C25.7107 31.8233 25.9442 32.0568 26.2322 32.0568C26.5202 32.0568 26.7537 31.8233 26.7537 31.5353V23.9477L28.9632 21.7382L31.9426 23.0623C32.1473 23.1533 32.3272 23.2823 32.4772 23.438L30.8125 25.1027C30.3981 25.5171 30.17 26.068 30.17 26.6539V31.5353C30.17 31.8234 30.4035 32.0569 30.6915 32.0569C30.9795 32.0569 31.213 31.8234 31.213 31.5353V26.6539C31.213 26.3466 31.3327 26.0576 31.55 25.8402L32.9464 24.4439C32.9526 24.5031 32.957 24.5627 32.957 24.6231V31.5353C32.957 31.8233 33.1905 32.0568 33.4785 32.0568C33.7665 32.0568 34 31.8233 34 31.5353V24.6232C33.9998 23.5371 33.3585 22.5503 32.366 22.1092ZM26.232 22.9941L24.2933 21.0553C24.4407 20.8073 24.5239 20.5203 24.5239 20.2201V20.0079C25.0498 20.2289 25.6269 20.3513 26.2321 20.3513C26.8372 20.3513 27.4143 20.229 27.9401 20.008V20.2201C27.9401 20.5204 28.0233 20.8073 28.1708 21.0554L26.232 22.9941ZM26.2321 19.3082C24.3682 19.3083 22.8517 17.7919 22.8517 15.928V15.6934C23.1772 15.5644 23.4948 15.3592 23.7989 15.0786C24.0105 14.8832 24.0238 14.5533 23.8284 14.3416C23.633 14.13 23.3032 14.1168 23.0914 14.3121C22.8306 14.5529 22.57 14.7084 22.317 14.7745C22.3109 14.7761 22.3064 14.7768 22.3032 14.7771C22.2994 14.7698 22.2943 14.7545 22.2943 14.7299V13.6984C22.2943 11.8344 23.8108 10.318 25.6747 10.318H26.7895C28.6535 10.318 30.1698 11.8344 30.1698 13.6984V13.812C30.1698 13.8289 30.1597 13.8436 30.1463 13.8463C27.0234 14.463 25.457 13.3006 24.9286 12.7721C24.7249 12.5685 24.3947 12.5685 24.1911 12.7721C23.9874 12.9758 23.9874 13.306 24.1911 13.5096C25.8105 15.1291 28.1737 15.1583 29.6124 14.9855V15.9279C29.6124 17.7918 28.096 19.3082 26.2321 19.3082Z" fill="#52BEEA"/>
<path d="M17.8351 19.2726V18.1576C17.8351 16.7971 17.128 15.5994 16.0627 14.9101C16.1285 14.6991 16.1628 14.478 16.1628 14.2557C16.1628 13.0461 15.1787 12.062 13.9691 12.062C12.7594 12.062 11.7754 13.0462 11.7754 14.2557C11.7754 14.4808 11.8094 14.6997 11.8754 14.9103C10.8101 15.5994 10.1031 16.7971 10.1031 18.1576V19.2724C10.1031 20.5899 10.766 21.7549 11.7753 22.4532V23.6C11.7753 23.8262 11.6497 24.0296 11.4474 24.1307L9.64354 25.0326C8.89555 25.4067 8.43091 26.1585 8.43091 26.9948V31.5355C8.43091 31.8235 8.66441 32.057 8.95243 32.057C9.24044 32.057 9.47395 31.8235 9.47395 31.5355V27.2204L10.3235 28.07C10.5408 28.2874 10.6606 28.5763 10.6606 28.8837V31.5355C10.6606 31.8235 10.8941 32.057 11.1821 32.057C11.4701 32.057 11.7036 31.8235 11.7036 31.5355V28.8837C11.7036 28.2977 11.4754 27.7469 11.0611 27.3325L9.87864 26.15C9.87294 26.1443 9.86682 26.1394 9.86098 26.1341C9.93518 26.0686 10.0184 26.0115 10.1101 25.9656L11.9139 25.0638C12.0063 25.0175 12.0923 24.9629 12.1725 24.9023L13.4476 26.1774V31.5355C13.4476 31.8235 13.6811 32.0571 13.9691 32.0571C14.2571 32.0571 14.4906 31.8235 14.4906 31.5355V26.1774L15.7658 24.9022C15.846 24.9629 15.932 25.0175 16.0244 25.0637L16.5218 25.3124C16.5966 25.3499 16.6762 25.3676 16.7546 25.3676C16.9459 25.3676 17.1301 25.2619 17.2215 25.0793C17.3503 24.8216 17.2459 24.5084 16.9883 24.3796L16.4909 24.1309C16.2885 24.0297 16.1629 23.8264 16.1629 23.6002V22.4534C17.1722 21.7551 17.8351 20.59 17.8351 19.2726ZM13.9691 13.105C14.6036 13.105 15.1198 13.6213 15.1198 14.2557C15.1198 14.3256 15.1135 14.3941 15.1016 14.4612C14.7432 14.3512 14.363 14.2916 13.9691 14.2916C13.5757 14.2916 13.1961 14.351 12.8382 14.4607C12.8262 14.3936 12.8184 14.3255 12.8184 14.2557C12.8184 13.6212 13.3346 13.105 13.9691 13.105ZM13.9691 15.3347C15.5257 15.3347 16.792 16.6011 16.792 18.1577V18.3467C14.6208 19.0114 13.3268 17.3597 13.2715 17.2874C13.1808 17.1664 13.042 17.0908 12.8913 17.0801C12.7405 17.0695 12.5924 17.1246 12.4855 17.2315C11.9877 17.7293 11.5002 17.9694 11.148 18.0853C11.1866 16.5621 12.4368 15.3347 13.9691 15.3347ZM13.9691 25.2238L12.764 24.0186C12.7992 23.8842 12.8184 23.744 12.8184 23.6001V22.9635C13.182 23.0771 13.5686 23.1384 13.9691 23.1384C14.3696 23.1384 14.7562 23.0771 15.1198 22.9635V23.6001C15.1198 23.744 15.139 23.8842 15.1742 24.0186L13.9691 25.2238ZM13.9691 22.0953C12.4125 22.0953 11.1461 20.829 11.1461 19.2724V19.1643C11.562 19.0688 12.1787 18.8468 12.822 18.3294C13.0496 18.5441 13.3748 18.8075 13.7891 19.0335C14.279 19.3007 14.9557 19.5479 15.7822 19.5479C16.0963 19.5479 16.4323 19.5114 16.7876 19.4275C16.7067 20.9123 15.4736 22.0953 13.9691 22.0953Z" fill="#52BEEA"/>
</svg>
