<svg width="32" height="30" viewBox="0 0 32 30" fill="none" xmlns="http://www.w3.org/2000/svg">
<path d="M1.01091 15.8378H20.5555C21.1135 15.8378 21.5664 15.3849 21.5664 14.8269C21.5664 14.2689 21.1135 13.816 20.5555 13.816H1.01091C0.452879 13.816 -9.53674e-06 14.2689 -9.53674e-06 14.8269C-9.53674e-06 15.3849 0.452879 15.8378 1.01091 15.8378Z" fill="#B0BEC7"/>
<path d="M15.1638 21.2293C15.4227 21.2293 15.6813 21.131 15.8783 20.9329L21.2698 15.5414C21.6646 15.1462 21.6646 14.506 21.2698 14.1111L15.8783 8.71966C15.4834 8.32477 14.8432 8.32477 14.448 8.71966C14.0531 9.11455 14.0531 9.75477 14.448 10.1497L19.1253 14.8269L14.448 19.5041C14.0531 19.899 14.0531 20.5392 14.448 20.9341C14.6462 21.131 14.9051 21.2293 15.1638 21.2293Z" fill="#B0BEC7"/>
<path d="M16.1746 29.6538C24.3495 29.6538 31.0015 23.0018 31.0015 14.8269C31.0015 6.65192 24.3495 0 16.1746 0C10.0405 0 4.62455 3.69049 2.37491 9.40307C2.17006 9.92186 2.42624 10.5083 2.94503 10.7143C3.46406 10.9167 4.05048 10.6645 4.25656 10.143C6.19892 5.20959 10.8774 2.02184 16.1746 2.02184C23.235 2.02184 28.9796 7.76674 28.9796 14.8269C28.9796 21.887 23.235 27.6319 16.1746 27.6319C10.8774 27.6319 6.19892 24.4442 4.25656 19.5123C4.05171 18.9905 3.4653 18.7385 2.94503 18.9406C2.42624 19.1455 2.17006 19.7331 2.37491 20.2522C4.62455 25.9633 10.0405 29.6538 16.1746 29.6538Z" fill="#B0BEC7"/>
</svg>
