<svg width="23" height="28" viewBox="0 0 23 28" fill="none" xmlns="http://www.w3.org/2000/svg">
<mask id="path-1-outside-1" maskUnits="userSpaceOnUse" x="0" y="0" width="23" height="28" fill="black">
<rect fill="white" width="23" height="28"/>
<path fill-rule="evenodd" clip-rule="evenodd" d="M16.2737 11.6896C15.0562 12.9072 13.5665 13.5243 11.8459 13.5243C10.1256 13.5243 8.63593 12.907 7.41817 11.6898C6.20081 10.4725 5.5835 8.98276 5.5835 7.26195C5.5835 5.54154 6.20081 4.05183 7.41817 2.83447C8.63553 1.61711 10.125 1 11.8459 1C13.5663 1 15.056 1.61711 16.2735 2.83427C17.4911 4.05203 18.1082 5.54174 18.1082 7.26195C18.1082 8.98276 17.4909 10.4723 16.2737 11.6896ZM11.8459 2.52363C10.5255 2.52363 9.42978 2.97769 8.49568 3.91178C7.56139 4.84608 7.10713 5.94204 7.10713 7.26195C7.10713 8.58226 7.56139 9.67822 8.49568 10.6123C9.43018 11.5464 10.5259 12.0007 11.8459 12.0007C13.166 12.0007 14.2619 11.5466 15.1962 10.6123C16.1303 9.67802 16.5846 8.58226 16.5846 7.26195C16.5846 5.94204 16.1303 4.84608 15.1962 3.91178C14.2619 2.97769 13.166 2.52363 11.8459 2.52363ZM22.4287 19.3151C22.5332 19.8987 22.6042 20.4514 22.6394 20.958C22.6741 21.4531 22.6917 21.9698 22.6919 22.4937C22.6919 23.8513 22.2605 24.9504 21.4095 25.7602C20.569 26.5598 19.4574 26.9652 18.1055 26.9652H5.58638C4.23413 26.9652 3.1225 26.5598 2.28223 25.7602C1.43144 24.9499 1 23.8511 1 22.4939C1 21.9718 1.01746 21.4551 1.05197 20.9586C1.08708 20.4508 1.1579 19.8979 1.26263 19.3151C1.36816 18.7272 1.50404 18.1716 1.6665 17.6636C1.83472 17.1381 2.06323 16.6198 2.3455 16.1229C2.63829 15.6073 2.98265 15.1584 3.36906 14.7887C3.77353 14.4017 4.26845 14.0908 4.84013 13.8645C5.41003 13.6387 6.04163 13.5243 6.71765 13.5243C6.98306 13.5243 7.23975 13.6332 7.73506 13.9559C8.04471 14.1577 8.40176 14.3878 8.79631 14.6399C9.13631 14.8569 9.5979 15.0602 10.1672 15.2441C10.7236 15.424 11.2882 15.5153 11.8452 15.5153C12.4026 15.5153 12.9671 15.424 13.5231 15.2441C14.093 15.06 14.5544 14.8567 14.895 14.6397C15.2933 14.3852 15.6502 14.1551 15.9553 13.9561C16.451 13.6334 16.7077 13.5245 16.9731 13.5245C17.6489 13.5245 18.2807 13.6387 18.8508 13.8643C19.4229 14.091 19.9176 14.4019 20.3217 14.7885C20.7081 15.158 21.0524 15.6071 21.3454 16.1229C21.6281 16.6198 21.8564 17.1383 22.0246 17.6634C22.1873 18.1714 22.3232 18.7272 22.4287 19.3151ZM18.1053 25.4416C19.0666 25.4416 19.8037 25.1847 20.359 24.6563C20.9035 24.1381 21.1681 23.4308 21.1683 22.4939C21.1681 22.0053 21.1518 21.5245 21.1195 21.0645V21.0641C21.0882 20.6118 21.0239 20.1139 20.9291 19.5841C20.8354 19.0622 20.7158 18.5723 20.5736 18.1279C20.4375 17.7028 20.2514 17.2813 20.0208 16.8757C19.8008 16.4884 19.5477 16.1566 19.2684 15.8894C19.0071 15.6394 18.6778 15.4345 18.29 15.281C17.931 15.139 17.5277 15.0612 17.0897 15.0495C17.0364 15.0779 16.9413 15.1322 16.7874 15.2324C16.4742 15.4367 16.1233 15.6629 15.7149 15.9239C15.2644 16.2111 14.685 16.47 13.9919 16.6939C13.2843 16.9227 12.5621 17.0389 11.8454 17.0389C11.1287 17.0389 10.4066 16.9227 9.69867 16.6938C9.00618 16.4702 8.42656 16.2111 7.97667 15.9243C7.57756 15.6694 7.21654 15.4365 6.90332 15.2324C6.74939 15.132 6.65437 15.0779 6.60101 15.0495C6.16322 15.0612 5.75995 15.139 5.40111 15.281C5.01311 15.4345 4.68382 15.6392 4.42258 15.8894C4.14328 16.1568 3.89017 16.4886 3.67018 16.8755C3.43968 17.2813 3.25381 17.7026 3.11754 18.1281C2.97551 18.5719 2.85609 19.062 2.76227 19.5843C2.66725 20.1131 2.60318 20.6108 2.57184 21.0639C2.5397 21.5257 2.52364 22.0067 2.52364 22.4939C2.52364 23.4306 2.78825 24.1381 3.33276 24.6565C3.88779 25.1847 4.62491 25.4416 5.58638 25.4416H18.1053Z"/>
</mask>
<path fill-rule="evenodd" clip-rule="evenodd" d="M16.2737 11.6896C15.0562 12.9072 13.5665 13.5243 11.8459 13.5243C10.1256 13.5243 8.63593 12.907 7.41817 11.6898C6.20081 10.4725 5.5835 8.98276 5.5835 7.26195C5.5835 5.54154 6.20081 4.05183 7.41817 2.83447C8.63553 1.61711 10.125 1 11.8459 1C13.5663 1 15.056 1.61711 16.2735 2.83427C17.4911 4.05203 18.1082 5.54174 18.1082 7.26195C18.1082 8.98276 17.4909 10.4723 16.2737 11.6896ZM11.8459 2.52363C10.5255 2.52363 9.42978 2.97769 8.49568 3.91178C7.56139 4.84608 7.10713 5.94204 7.10713 7.26195C7.10713 8.58226 7.56139 9.67822 8.49568 10.6123C9.43018 11.5464 10.5259 12.0007 11.8459 12.0007C13.166 12.0007 14.2619 11.5466 15.1962 10.6123C16.1303 9.67802 16.5846 8.58226 16.5846 7.26195C16.5846 5.94204 16.1303 4.84608 15.1962 3.91178C14.2619 2.97769 13.166 2.52363 11.8459 2.52363ZM22.4287 19.3151C22.5332 19.8987 22.6042 20.4514 22.6394 20.958C22.6741 21.4531 22.6917 21.9698 22.6919 22.4937C22.6919 23.8513 22.2605 24.9504 21.4095 25.7602C20.569 26.5598 19.4574 26.9652 18.1055 26.9652H5.58638C4.23413 26.9652 3.1225 26.5598 2.28223 25.7602C1.43144 24.9499 1 23.8511 1 22.4939C1 21.9718 1.01746 21.4551 1.05197 20.9586C1.08708 20.4508 1.1579 19.8979 1.26263 19.3151C1.36816 18.7272 1.50404 18.1716 1.6665 17.6636C1.83472 17.1381 2.06323 16.6198 2.3455 16.1229C2.63829 15.6073 2.98265 15.1584 3.36906 14.7887C3.77353 14.4017 4.26845 14.0908 4.84013 13.8645C5.41003 13.6387 6.04163 13.5243 6.71765 13.5243C6.98306 13.5243 7.23975 13.6332 7.73506 13.9559C8.04471 14.1577 8.40176 14.3878 8.79631 14.6399C9.13631 14.8569 9.5979 15.0602 10.1672 15.2441C10.7236 15.424 11.2882 15.5153 11.8452 15.5153C12.4026 15.5153 12.9671 15.424 13.5231 15.2441C14.093 15.06 14.5544 14.8567 14.895 14.6397C15.2933 14.3852 15.6502 14.1551 15.9553 13.9561C16.451 13.6334 16.7077 13.5245 16.9731 13.5245C17.6489 13.5245 18.2807 13.6387 18.8508 13.8643C19.4229 14.091 19.9176 14.4019 20.3217 14.7885C20.7081 15.158 21.0524 15.6071 21.3454 16.1229C21.6281 16.6198 21.8564 17.1383 22.0246 17.6634C22.1873 18.1714 22.3232 18.7272 22.4287 19.3151ZM18.1053 25.4416C19.0666 25.4416 19.8037 25.1847 20.359 24.6563C20.9035 24.1381 21.1681 23.4308 21.1683 22.4939C21.1681 22.0053 21.1518 21.5245 21.1195 21.0645V21.0641C21.0882 20.6118 21.0239 20.1139 20.9291 19.5841C20.8354 19.0622 20.7158 18.5723 20.5736 18.1279C20.4375 17.7028 20.2514 17.2813 20.0208 16.8757C19.8008 16.4884 19.5477 16.1566 19.2684 15.8894C19.0071 15.6394 18.6778 15.4345 18.29 15.281C17.931 15.139 17.5277 15.0612 17.0897 15.0495C17.0364 15.0779 16.9413 15.1322 16.7874 15.2324C16.4742 15.4367 16.1233 15.6629 15.7149 15.9239C15.2644 16.2111 14.685 16.47 13.9919 16.6939C13.2843 16.9227 12.5621 17.0389 11.8454 17.0389C11.1287 17.0389 10.4066 16.9227 9.69867 16.6938C9.00618 16.4702 8.42656 16.2111 7.97667 15.9243C7.57756 15.6694 7.21654 15.4365 6.90332 15.2324C6.74939 15.132 6.65437 15.0779 6.60101 15.0495C6.16322 15.0612 5.75995 15.139 5.40111 15.281C5.01311 15.4345 4.68382 15.6392 4.42258 15.8894C4.14328 16.1568 3.89017 16.4886 3.67018 16.8755C3.43968 17.2813 3.25381 17.7026 3.11754 18.1281C2.97551 18.5719 2.85609 19.062 2.76227 19.5843C2.66725 20.1131 2.60318 20.6108 2.57184 21.0639C2.5397 21.5257 2.52364 22.0067 2.52364 22.4939C2.52364 23.4306 2.78825 24.1381 3.33276 24.6565C3.88779 25.1847 4.62491 25.4416 5.58638 25.4416H18.1053Z" fill="#B0BEC7"/>
<path d="M16.2737 11.6896L16.3445 11.7603L16.3445 11.7603L16.2737 11.6896ZM7.41817 11.6898L7.34746 11.7605L7.34747 11.7606L7.41817 11.6898ZM7.41817 2.83447L7.34746 2.76376L7.34746 2.76376L7.41817 2.83447ZM16.2735 2.83427L16.3443 2.76357L16.3442 2.76355L16.2735 2.83427ZM8.49568 3.91178L8.56639 3.98249L8.56639 3.98249L8.49568 3.91178ZM8.49568 10.6123L8.42498 10.683L8.42499 10.683L8.49568 10.6123ZM15.1962 10.6123L15.2669 10.683L15.2669 10.683L15.1962 10.6123ZM15.1962 3.91178L15.2669 3.84108L15.2669 3.84107L15.1962 3.91178ZM22.6394 20.958L22.5396 20.9649L22.5396 20.965L22.6394 20.958ZM22.4287 19.3151L22.5271 19.2975L22.5271 19.2975L22.4287 19.3151ZM22.6919 22.4937L22.7919 22.4937L22.7919 22.4937L22.6919 22.4937ZM21.4095 25.7602L21.4784 25.8326L21.4784 25.8326L21.4095 25.7602ZM2.28223 25.7602L2.21326 25.8326L2.21329 25.8326L2.28223 25.7602ZM1.05197 20.9586L1.15173 20.9655L1.15173 20.9655L1.05197 20.9586ZM1.26263 19.3151L1.36106 19.3328L1.36106 19.3328L1.26263 19.3151ZM1.6665 17.6636L1.57126 17.6331L1.57126 17.6331L1.6665 17.6636ZM2.3455 16.1229L2.43245 16.1723L2.43246 16.1722L2.3455 16.1229ZM3.36906 14.7887L3.29993 14.7164L3.29993 14.7164L3.36906 14.7887ZM4.84013 13.8645L4.87694 13.9575L4.87696 13.9575L4.84013 13.8645ZM7.73506 13.9559L7.68047 14.0397L7.68047 14.0397L7.73506 13.9559ZM8.79631 14.6399L8.74246 14.7242L8.74251 14.7242L8.79631 14.6399ZM10.1672 15.2441L10.198 15.149L10.1979 15.1489L10.1672 15.2441ZM13.5231 15.2441L13.4924 15.1489L13.4923 15.149L13.5231 15.2441ZM14.895 14.6397L14.9488 14.724L14.9489 14.724L14.895 14.6397ZM15.9553 13.9561L15.9007 13.8723L15.9007 13.8724L15.9553 13.9561ZM18.8508 13.8643L18.8876 13.7713L18.8876 13.7713L18.8508 13.8643ZM20.3217 14.7885L20.2525 14.8607L20.2526 14.8607L20.3217 14.7885ZM21.3454 16.1229L21.2585 16.1723L21.2585 16.1723L21.3454 16.1229ZM22.0246 17.6634L22.1199 17.6329L22.1199 17.6328L22.0246 17.6634ZM20.359 24.6563L20.29 24.5838L20.29 24.5838L20.359 24.6563ZM21.1683 22.4939L21.2683 22.4939L21.2683 22.4939L21.1683 22.4939ZM21.1195 21.0645H21.0192L21.0197 21.0715L21.1195 21.0645ZM21.1195 21.0641H21.2197L21.2193 21.0572L21.1195 21.0641ZM20.9291 19.5841L21.0275 19.5665L21.0275 19.5665L20.9291 19.5841ZM20.5736 18.1279L20.6688 18.0974L20.6688 18.0974L20.5736 18.1279ZM20.0208 16.8757L19.9338 16.925L19.9338 16.9251L20.0208 16.8757ZM19.2684 15.8894L19.1992 15.9616L19.1992 15.9616L19.2684 15.8894ZM18.29 15.281L18.3268 15.188L18.3268 15.188L18.29 15.281ZM17.0897 15.0495L17.0924 14.9495L17.0661 14.9488L17.0428 14.9612L17.0897 15.0495ZM16.7874 15.2324L16.7329 15.1486L16.7328 15.1486L16.7874 15.2324ZM15.7149 15.9239L15.7686 16.0082L15.7687 16.0082L15.7149 15.9239ZM13.9919 16.6939L13.9611 16.5988L13.9611 16.5988L13.9919 16.6939ZM9.69867 16.6938L9.72944 16.5986L9.72939 16.5986L9.69867 16.6938ZM7.97667 15.9243L7.92284 16.0086L7.92291 16.0086L7.97667 15.9243ZM6.90332 15.2324L6.8487 15.3162L6.84872 15.3162L6.90332 15.2324ZM6.60101 15.0495L6.64795 14.9612L6.62468 14.9488L6.59834 14.9495L6.60101 15.0495ZM5.40111 15.281L5.4379 15.374L5.43791 15.374L5.40111 15.281ZM4.42258 15.8894L4.49173 15.9616L4.49174 15.9616L4.42258 15.8894ZM3.67018 16.8755L3.58326 16.826L3.58323 16.8261L3.67018 16.8755ZM3.11754 18.1281L3.0223 18.0976L3.0223 18.0976L3.11754 18.1281ZM2.76227 19.5843L2.86069 19.602L2.86069 19.602L2.76227 19.5843ZM2.57184 21.0639L2.6716 21.0708L2.6716 21.0708L2.57184 21.0639ZM3.33276 24.6565L3.26382 24.7289L3.26382 24.7289L3.33276 24.6565ZM11.8459 13.6243C13.593 13.6243 15.1081 12.9966 16.3445 11.7603L16.203 11.6189C15.0042 12.8177 13.5399 13.4243 11.8459 13.4243V13.6243ZM7.34747 11.7606C8.58396 12.9964 10.0991 13.6243 11.8459 13.6243V13.4243C10.1522 13.4243 8.68789 12.8175 7.48886 11.6191L7.34747 11.7606ZM5.4835 7.26195C5.4835 9.0093 6.11135 10.5244 7.34746 11.7605L7.48888 11.6191C6.29026 10.4205 5.6835 8.95622 5.6835 7.26195H5.4835ZM7.34746 2.76376C6.11136 3.99986 5.4835 5.515 5.4835 7.26195H5.6835C5.6835 5.56808 6.29026 4.1038 7.48888 2.90518L7.34746 2.76376ZM11.8459 0.9C10.0985 0.9 8.58356 1.52765 7.34746 2.76376L7.48888 2.90518C8.68749 1.70657 10.1516 1.1 11.8459 1.1V0.9ZM16.3442 2.76355C15.1079 1.52765 13.5928 0.9 11.8459 0.9V1.1C13.5397 1.1 15.004 1.70657 16.2028 2.90499L16.3442 2.76355ZM18.2082 7.26195C18.2082 5.5152 17.5806 4.00006 16.3443 2.76357L16.2028 2.90498C17.4017 4.10399 18.0082 5.56828 18.0082 7.26195H18.2082ZM16.3445 11.7603C17.5804 10.5242 18.2082 9.0093 18.2082 7.26195H18.0082C18.0082 8.95622 17.4015 10.4203 16.203 11.6189L16.3445 11.7603ZM8.56639 3.98249C9.48175 3.06714 10.5521 2.62363 11.8459 2.62363V2.42363C10.499 2.42363 9.37781 2.88824 8.42497 3.84107L8.56639 3.98249ZM7.20713 7.26195C7.20713 5.96859 7.65083 4.89806 8.56639 3.98249L8.42497 3.84107C7.47194 4.7941 7.00713 5.91548 7.00713 7.26195H7.20713ZM8.56638 10.5416C7.65083 9.62624 7.20713 8.55571 7.20713 7.26195H7.00713C7.00713 8.60881 7.47194 9.7302 8.42498 10.683L8.56638 10.5416ZM11.8459 11.9007C10.5525 11.9007 9.48215 11.457 8.56638 10.5416L8.42499 10.683C9.3782 11.6359 10.4994 12.1007 11.8459 12.1007V11.9007ZM15.1255 10.5416C14.21 11.4572 13.1394 11.9007 11.8459 11.9007V12.1007C13.1925 12.1007 14.3139 11.6361 15.2669 10.683L15.1255 10.5416ZM16.4846 7.26195C16.4846 8.55571 16.0409 9.62605 15.1255 10.5416L15.2669 10.683C16.2198 9.73 16.6846 8.60881 16.6846 7.26195H16.4846ZM15.1255 3.98249C16.0409 4.89805 16.4846 5.96859 16.4846 7.26195H16.6846C16.6846 5.91549 16.2198 4.7941 15.2669 3.84108L15.1255 3.98249ZM11.8459 2.62363C13.1394 2.62363 14.21 3.06714 15.1255 3.9825L15.2669 3.84107C14.3139 2.88824 13.1925 2.42363 11.8459 2.42363V2.62363ZM22.7391 20.9511C22.7037 20.4403 22.6322 19.884 22.5271 19.2975L22.3303 19.3328C22.4343 19.9134 22.5048 20.4624 22.5396 20.9649L22.7391 20.9511ZM22.7919 22.4937C22.7917 21.9676 22.774 21.4485 22.7391 20.951L22.5396 20.965C22.5741 21.4576 22.5917 21.9721 22.5919 22.4938L22.7919 22.4937ZM21.4784 25.8326C22.3524 25.001 22.7919 23.874 22.7919 22.4937H22.5919C22.5919 23.8286 22.1686 24.8999 21.3406 25.6877L21.4784 25.8326ZM18.1055 27.0652C19.4785 27.0652 20.6163 26.6528 21.4784 25.8326L21.3406 25.6877C20.5217 26.4667 19.4363 26.8652 18.1055 26.8652V27.0652ZM5.58638 27.0652H18.1055V26.8652H5.58638V27.0652ZM2.21329 25.8326C3.07521 26.6528 4.21303 27.0652 5.58638 27.0652V26.8652C4.25524 26.8652 3.16978 26.4667 2.35116 25.6877L2.21329 25.8326ZM0.9 22.4939C0.9 23.8739 1.33954 25.0004 2.21326 25.8326L2.35119 25.6878C1.52334 24.8993 1.1 23.8284 1.1 22.4939H0.9ZM0.952212 20.9516C0.917528 21.4506 0.9 21.9696 0.9 22.4939H1.1C1.1 21.974 1.11738 21.4596 1.15173 20.9655L0.952212 20.9516ZM1.16421 19.2974C1.05893 19.8833 0.987606 20.4397 0.95221 20.9517L1.15173 20.9655C1.18656 20.4618 1.25686 19.9126 1.36106 19.3328L1.16421 19.2974ZM1.57126 17.6331C1.40731 18.1458 1.27042 18.7057 1.16421 19.2975L1.36106 19.3328C1.4659 18.7487 1.60078 18.1974 1.76175 17.694L1.57126 17.6331ZM2.25855 16.0735C1.973 16.5761 1.74166 17.1008 1.57126 17.6331L1.76174 17.694C1.92777 17.1754 2.15346 16.6634 2.43245 16.1723L2.25855 16.0735ZM3.29993 14.7164C2.90578 15.0936 2.55562 15.5504 2.25855 16.0735L2.43246 16.1722C2.72097 15.6642 3.05952 15.2233 3.4382 14.8609L3.29993 14.7164ZM4.80332 13.7715C4.22082 14.0021 3.71462 14.3196 3.29993 14.7164L3.4382 14.8609C3.83244 14.4837 4.31607 14.1795 4.87694 13.9575L4.80332 13.7715ZM6.71765 13.4243C6.03031 13.4243 5.38608 13.5407 4.80331 13.7715L4.87696 13.9575C5.43399 13.7368 6.05294 13.6243 6.71765 13.6243V13.4243ZM7.78965 13.8721C7.29366 13.549 7.0151 13.4243 6.71765 13.4243V13.6243C6.95102 13.6243 7.18583 13.7174 7.68047 14.0397L7.78965 13.8721ZM8.85016 14.5556C8.45579 14.3036 8.09899 14.0737 7.78965 13.8721L7.68047 14.0397C7.99042 14.2417 8.34773 14.4719 8.74246 14.7242L8.85016 14.5556ZM10.1979 15.1489C9.63322 14.9665 9.18034 14.7664 8.85011 14.5556L8.74251 14.7242C9.09227 14.9474 9.56258 15.1539 10.1365 15.3393L10.1979 15.1489ZM11.8452 15.4153C11.2991 15.4153 10.7449 15.3258 10.198 15.149L10.1364 15.3393C10.7023 15.5222 11.2772 15.6153 11.8452 15.6153V15.4153ZM13.4923 15.149C12.9458 15.3258 12.3916 15.4153 11.8452 15.4153V15.6153C12.4135 15.6153 12.9884 15.5222 13.5539 15.3393L13.4923 15.149ZM14.8413 14.5554C14.5104 14.7662 14.0577 14.9664 13.4924 15.1489L13.5539 15.3393C14.1284 15.1537 14.5984 14.9472 14.9488 14.724L14.8413 14.5554ZM15.9007 13.8724C15.5959 14.0711 15.2393 14.301 14.8412 14.5554L14.9489 14.724C15.3474 14.4693 15.7045 14.2391 16.0099 14.0399L15.9007 13.8724ZM16.9731 13.4245C16.6756 13.4245 16.3971 13.5492 15.9007 13.8723L16.0098 14.0399C16.5049 13.7176 16.7397 13.6245 16.9731 13.6245V13.4245ZM18.8876 13.7713C18.3046 13.5407 17.6602 13.4245 16.9731 13.4245V13.6245C17.6376 13.6245 18.2568 13.7368 18.814 13.9573L18.8876 13.7713ZM20.3908 14.7162C19.9765 14.3198 19.4705 14.0023 18.8876 13.7713L18.814 13.9573C19.3752 14.1797 19.8587 14.4839 20.2525 14.8607L20.3908 14.7162ZM21.4324 16.0735C21.1351 15.5502 20.785 15.0932 20.3908 14.7162L20.2526 14.8607C20.6312 15.2229 20.9698 15.664 21.2585 16.1723L21.4324 16.0735ZM22.1199 17.6328C21.9495 17.101 21.7183 16.5761 21.4323 16.0734L21.2585 16.1723C21.5379 16.6634 21.7634 17.1756 21.9294 17.6939L22.1199 17.6328ZM22.5271 19.2975C22.4209 18.7057 22.284 18.1455 22.1199 17.6329L21.9294 17.6938C22.0906 18.1972 22.2254 18.7487 22.3303 19.3328L22.5271 19.2975ZM20.29 24.5838C19.7578 25.0904 19.0478 25.3416 18.1053 25.3416V25.5416C19.0855 25.5416 19.8497 25.2791 20.4279 24.7287L20.29 24.5838ZM21.0683 22.4939C21.0681 23.4106 20.81 24.089 20.29 24.5838L20.4279 24.7287C20.9969 24.1873 21.2681 23.451 21.2683 22.4939L21.0683 22.4939ZM21.0197 21.0715C21.0519 21.529 21.0681 22.0075 21.0683 22.494L21.2683 22.4939C21.2681 22.0031 21.2518 21.52 21.2192 21.0575L21.0197 21.0715ZM21.0195 21.0641V21.0645H21.2195V21.0641H21.0195ZM20.8306 19.6017C20.9249 20.1287 20.9887 20.623 21.0197 21.071L21.2193 21.0572C21.1876 20.6007 21.1228 20.0992 21.0275 19.5665L20.8306 19.6017ZM20.4784 18.1584C20.6191 18.598 20.7377 19.0836 20.8306 19.6018L21.0275 19.5665C20.9332 19.0408 20.8126 18.5465 20.6688 18.0974L20.4784 18.1584ZM19.9338 16.9251C20.1613 17.325 20.3445 17.7402 20.4784 18.1584L20.6688 18.0974C20.5306 17.6655 20.3416 17.2376 20.1077 16.8262L19.9338 16.9251ZM19.1992 15.9616C19.4705 16.2212 19.7179 16.545 19.9338 16.925L20.1077 16.8263C19.8836 16.4319 19.6248 16.092 19.3375 15.8171L19.1992 15.9616ZM18.2532 15.374C18.6308 15.5235 18.9486 15.7219 19.1992 15.9616L19.3375 15.8171C19.0656 15.557 18.7249 15.3456 18.3268 15.188L18.2532 15.374ZM17.0871 15.1495C17.5149 15.1609 17.9064 15.2368 18.2532 15.374L18.3268 15.188C17.9555 15.0411 17.5405 14.9615 17.0924 14.9495L17.0871 15.1495ZM16.842 15.3162C16.9941 15.2172 17.0865 15.1645 17.1367 15.1378L17.0428 14.9612C16.9862 14.9913 16.8886 15.0472 16.7329 15.1486L16.842 15.3162ZM15.7687 16.0082C16.1773 15.747 16.5285 15.5207 16.842 15.3162L16.7328 15.1486C16.4199 15.3527 16.0693 15.5787 15.661 15.8396L15.7687 16.0082ZM14.0226 16.7891C14.7211 16.5634 15.3089 16.3013 15.7686 16.0082L15.6611 15.8396C15.2199 16.1209 14.6488 16.3766 13.9611 16.5988L14.0226 16.7891ZM11.8454 17.1389C12.5729 17.1389 13.3055 17.0209 14.0226 16.7891L13.9611 16.5988C13.2631 16.8244 12.5512 16.9389 11.8454 16.9389V17.1389ZM9.6679 16.7889C10.3854 17.0209 11.1178 17.1389 11.8454 17.1389V16.9389C11.1395 16.9389 10.4279 16.8244 9.72944 16.5986L9.6679 16.7889ZM7.92291 16.0086C8.38205 16.3013 8.97006 16.5636 9.66795 16.7889L9.72939 16.5986C9.0423 16.3768 8.47107 16.1209 8.03043 15.84L7.92291 16.0086ZM6.84872 15.3162C7.16223 15.5205 7.52351 15.7535 7.92284 16.0086L8.0305 15.84C7.63161 15.5853 7.27085 15.3526 6.95792 15.1486L6.84872 15.3162ZM6.55407 15.1378C6.60428 15.1645 6.69671 15.2171 6.8487 15.3162L6.95794 15.1486C6.80207 15.047 6.70446 14.9913 6.64795 14.9612L6.55407 15.1378ZM5.43791 15.374C5.7845 15.2368 6.17602 15.1609 6.60369 15.1495L6.59834 14.9495C6.15042 14.9615 5.7354 15.0411 5.36431 15.188L5.43791 15.374ZM4.49174 15.9616C4.74231 15.7217 5.0601 15.5235 5.4379 15.374L5.36431 15.188C4.96612 15.3456 4.62533 15.5568 4.35342 15.8172L4.49174 15.9616ZM3.75711 16.9249C3.97302 16.5452 4.22041 16.2214 4.49173 15.9616L4.35342 15.8172C4.06615 16.0922 3.80731 16.432 3.58326 16.826L3.75711 16.9249ZM3.21277 18.1586C3.34686 17.74 3.52989 17.325 3.75714 16.9248L3.58323 16.8261C3.34947 17.2376 3.16077 17.6653 3.0223 18.0976L3.21277 18.1586ZM2.86069 19.602C2.95385 19.0834 3.07227 18.5976 3.21278 18.1586L3.0223 18.0976C2.87875 18.5461 2.75834 19.0406 2.66384 19.5666L2.86069 19.602ZM2.6716 21.0708C2.70265 20.6219 2.7662 20.1279 2.86069 19.602L2.66384 19.5666C2.5683 20.0984 2.50371 20.5997 2.47208 21.057L2.6716 21.0708ZM2.62364 22.4939C2.62364 22.0089 2.63963 21.5302 2.6716 21.0708L2.47208 21.057C2.43977 21.5212 2.42364 22.0046 2.42364 22.4939H2.62364ZM3.40171 24.584C2.8817 24.089 2.62364 23.4104 2.62364 22.4939H2.42364C2.42364 23.4508 2.69481 24.1873 3.26382 24.7289L3.40171 24.584ZM5.58638 25.3416C4.64374 25.3416 3.93371 25.0904 3.40171 24.584L3.26382 24.7289C3.84186 25.2791 4.60608 25.5416 5.58638 25.5416V25.3416ZM18.1053 25.3416H5.58638V25.5416H18.1053V25.3416Z" fill="#B0BEC7" mask="url(#path-1-outside-1)"/>
</svg>
